<svg width="30" height="30" viewBox="0 0 30 30" fill="none" xmlns="http://www.w3.org/2000/svg">
<path d="M15.0782 0.00137917C23.562 0.118001 30.1151 6.88208 29.9985 15.4066C29.8874 23.5313 22.9342 30.1232 14.6031 29.9983C6.47213 29.8761 -0.142131 22.9898 0.00232195 14.7929C0.143997 6.50167 6.88605 -0.10969 15.0782 0.00137917ZM13.5809 13.5573C12.3864 13.5573 11.2919 13.5462 10.1946 13.5656C9.87233 13.5712 9.53064 13.6045 9.23618 13.7211C8.63615 13.9599 8.33613 14.6347 8.46947 15.2928C8.5917 15.8842 9.11395 16.3451 9.78065 16.3562C11.0168 16.3785 12.253 16.3618 13.5781 16.3618C13.5781 16.7172 13.5753 16.9921 13.5781 17.2642C13.5864 18.2722 13.5531 19.2801 13.617 20.2853C13.667 21.0517 14.3254 21.5765 15.0476 21.5459C15.7532 21.5182 16.3171 20.9795 16.3755 20.2492C16.406 19.8771 16.3921 19.4995 16.3921 19.1246C16.3949 18.2194 16.3921 17.3142 16.3921 16.3673C16.7894 16.3673 17.0672 16.3673 17.345 16.3673C18.3061 16.3646 19.2673 16.384 20.2257 16.3507C20.9341 16.3257 21.4785 15.7898 21.548 15.1262C21.6202 14.4264 21.1674 13.7794 20.459 13.6184C20.1896 13.5573 19.9035 13.5545 19.6229 13.5545C18.5728 13.5462 17.5255 13.5518 16.3921 13.5518C16.3921 12.4078 16.4033 11.3359 16.3866 10.2669C16.381 9.92259 16.3644 9.55329 16.2394 9.23952C15.9977 8.62864 15.3226 8.33431 14.667 8.47592C14.0698 8.60643 13.6031 9.16177 13.5892 9.86428C13.5642 11.0583 13.5809 12.2523 13.5809 13.5573Z" fill="#023047"/>
</svg>
