<svg width="9" height="17" viewBox="0 0 9 17" fill="none" xmlns="http://www.w3.org/2000/svg">
<path d="M5.58639 8.13124C5.63489 8.17962 5.67337 8.2371 5.69963 8.30037C5.72588 8.36365 5.7394 8.43148 5.7394 8.49999C5.7394 8.5685 5.72588 8.63633 5.69963 8.69961C5.67337 8.76288 5.63489 8.82036 5.58639 8.86874L0.80931 13.6448C0.516191 13.9378 0.351464 14.3352 0.351366 14.7496C0.351269 15.1641 0.515808 15.5616 0.808789 15.8547C1.10177 16.1478 1.49919 16.3125 1.91363 16.3126C2.32806 16.3127 2.72556 16.1482 3.01868 15.8552L7.79576 11.0781C8.47829 10.3937 8.86157 9.46657 8.86157 8.49999C8.86157 7.53341 8.47829 6.60628 7.79576 5.92186L3.01868 1.14478C2.72556 0.851799 2.32806 0.687259 1.91363 0.687357C1.49919 0.687454 1.10177 0.852184 0.808791 1.1453C0.51581 1.43842 0.35127 1.83592 0.351367 2.25036C0.351465 2.66479 0.516192 3.06222 0.809311 3.3552L5.58639 8.13124Z" fill="#0A6274"/>
</svg>
