<svg width="58" height="58" viewBox="0 0 58 58" fill="none" xmlns="http://www.w3.org/2000/svg">
<path d="M25.4577 36.4688C24.8236 36.4691 24.2154 36.217 23.7675 35.7683L19.1925 31.195L19.1924 31.1949C18.6025 30.6049 18.6025 29.6484 19.1924 29.0583L19.1925 29.0582C19.7825 28.4683 20.739 28.4683 21.3291 29.0582L21.3291 29.0583L25.4577 33.1868L36.6709 21.9736L36.6709 21.9735C37.261 21.3837 38.2175 21.3837 38.8075 21.9735L38.8076 21.9736C39.3975 22.5637 39.3975 23.5202 38.8076 24.1102L38.8075 24.1103L27.1479 35.7683C26.6999 36.217 26.0917 36.4691 25.4577 36.4688ZM25.4577 36.4688C25.4576 36.4688 25.4576 36.4688 25.4576 36.4688L25.4577 36.2188L25.4578 36.4688C25.4577 36.4688 25.4577 36.4688 25.4577 36.4688Z" fill="#023047" stroke="#023047" stroke-width="0.5"/>
</svg>
