<svg width="22" height="16" viewBox="0 0 22 16" fill="none" xmlns="http://www.w3.org/2000/svg">
<path d="M7.45766 15.4688C6.82357 15.4691 6.21545 15.217 5.76745 14.7683L1.19247 10.195L1.19241 10.1949C0.602529 9.60486 0.602529 8.64835 1.19241 8.05828L1.19247 8.05822C1.78254 7.46834 2.73905 7.46834 3.32912 8.05822L3.32915 8.05825L7.45766 12.1868L18.6709 0.973569L18.6709 0.97354C19.261 0.383657 20.2175 0.383657 20.8075 0.97354L20.8076 0.973597C21.3975 1.56367 21.3975 2.52017 20.8076 3.11024L20.8075 3.11029L9.14786 14.7683C8.69987 15.217 8.09175 15.4691 7.45766 15.4688ZM7.45766 15.4688C7.45762 15.4688 7.45759 15.4688 7.45755 15.4688L7.45766 15.2188L7.45776 15.4688C7.45773 15.4688 7.45769 15.4688 7.45766 15.4688Z" fill="#023047" stroke="#023047" stroke-width="0.5"/>
</svg>
