<svg width="19" height="25" viewBox="0 0 19 25" fill="none" xmlns="http://www.w3.org/2000/svg">
<path d="M14.0454 12.0308C14.0741 15.0694 13.6574 18.1234 12.1679 20.9308C11.6986 21.8148 11.0975 22.6669 10.404 23.3866C8.30535 25.5646 5.57271 25.4898 3.50419 23.2803C1.98544 21.6579 1.13405 19.6891 0.630812 17.5644C-0.400439 13.2097 -0.214789 8.92593 1.54054 4.76875C2.13475 3.36134 2.95674 2.09652 4.1704 1.12615C5.98429 -0.324081 8.08383 -0.321535 9.89865 1.13495C11.2343 2.20671 12.0653 3.63495 12.7028 5.18588C13.5899 7.34467 13.9584 9.61088 14.0454 12.0308ZM11.3755 12.531C11.2697 11.4498 11.2232 10.3586 11.0445 9.29028C10.7544 7.55417 10.2933 5.85995 9.1498 4.45463C7.7579 2.74444 5.58498 2.69398 4.20697 4.4037C3.65142 5.09375 3.17549 5.90717 2.88544 6.74166C1.76808 9.9537 1.71299 13.2486 2.39146 16.5623C2.70165 18.075 3.20628 19.5151 4.25327 20.6984C5.61392 22.2361 7.67712 22.2354 9.02897 20.6868C9.34587 20.3276 9.61678 19.9304 9.83545 19.5042C10.9366 17.3148 11.3095 14.9646 11.3755 12.531Z" fill="#FAA330"/>
<path d="M18.3883 16.4384C18.1408 18.0136 17.7318 19.4939 17.0457 20.8918C16.9966 20.9918 16.819 21.084 16.6984 21.086C15.7957 21.1022 14.8929 21.0948 13.972 21.0948C14.4394 19.5275 14.898 17.9911 15.3609 16.4384H18.3883Z" fill="#FAA330"/>
<path d="M15.5532 10.1852H18.6199V14.8214H15.5532V10.1852Z" fill="#FAA330"/>
<path d="M18.3927 8.58992H15.3705C14.9075 7.042 14.4499 5.517 13.9772 3.93945C14.8925 3.93945 15.8422 3.93112 16.7913 3.95126C16.8957 3.95334 17.0397 4.09848 17.0922 4.21168C17.745 5.58575 18.1494 7.0339 18.3927 8.58992Z" fill="#FAA330"/>
<path d="M16.0498 2.38569C15.0861 2.38569 14.1854 2.39333 13.2854 2.37758C13.1438 2.37527 12.9556 2.30536 12.8711 2.2005C12.3109 1.50606 11.7729 0.792398 11.2435 0.105361C13.0662 -0.320334 15.0125 0.56462 16.0498 2.38569Z" fill="#FAA330"/>
<path d="M16.078 22.6482C14.8535 24.4581 13.2878 25.2558 11.2236 24.9281C11.7822 24.2077 12.3452 23.4737 12.9218 22.7505C12.9769 22.6811 13.1167 22.6533 13.2174 22.6526C14.1364 22.6452 15.0556 22.6482 16.078 22.6482Z" fill="#FAA330"/>
<path d="M9.84587 12.5256C9.73198 14.5046 9.52527 16.443 8.72226 18.2638C8.49984 18.7691 8.20568 19.2396 7.84888 19.6608C7.13406 20.4967 6.16137 20.5298 5.47179 19.6814C4.99424 19.0937 4.57179 18.4011 4.33753 17.6856C3.20327 14.2178 3.2204 10.7215 4.35674 7.25597C4.57549 6.5893 4.96253 5.94416 5.4005 5.39092C6.1248 4.47564 7.07226 4.48814 7.85953 5.35134C8.7623 6.34208 9.14471 7.58699 9.37897 8.85921C9.60212 10.0694 9.69541 11.3027 9.84587 12.5256Z" fill="#FAA330"/>
</svg>
