<svg id="Layer_1" data-name="Layer 1" xmlns="http://www.w3.org/2000/svg" viewBox="0 0 1080 1080"><defs><style>.cls-1{fill:#023047;}</style></defs><path class="cls-1" d="M606.76,519.73C608,651,590,782.93,525.65,904.21c-20.27,38.19-46.24,75-76.2,106.09-90.66,94.09-208.71,90.86-298.07-4.59C85.77,935.62,49,850.57,27.25,758.78-17.3,570.66-9.28,385.6,66.55,206c25.67-60.8,61.18-115.44,113.61-157.36C258.52-14,349.22-13.89,427.62,49c57.7,46.3,93.6,108,121.14,175C587.08,317.29,603,415.19,606.76,519.73ZM491.42,541.34c-4.57-46.71-6.58-93.85-14.3-140-12.53-75-32.45-148.19-81.85-208.9-60.13-73.88-154-76.06-213.53-2.2-24,29.81-44.56,64.95-57.09,101C76.38,430,74,572.34,103.31,715.49c13.4,65.35,35.2,127.56,80.43,178.68,58.78,66.43,147.91,66.4,206.31-.5a249.14,249.14,0,0,0,34.84-51.09C472.46,748,488.57,646.47,491.42,541.34Z"/><path class="cls-1" d="M794.37,710.14c-10.69,68.05-28.36,132-58,192.39-2.12,4.32-9.79,8.3-15,8.39-39,.7-78,.38-117.78.38,20.19-67.71,40-134.08,60-201.16Z"/><path class="cls-1" d="M671.9,440H804.38V640.28H671.9Z"/><path class="cls-1" d="M794.56,371.09H664c-20-66.87-39.77-132.75-60.19-200.9,39.54,0,80.57-.36,121.57.51,4.51.09,10.73,6.36,13,11.25C766.58,241.31,784.05,303.87,794.56,371.09Z"/><path class="cls-1" d="M693.35,103.06c-41.63,0-80.54.33-119.42-.35-6.12-.1-14.25-3.12-17.9-7.65-24.2-30-47.44-60.83-70.31-90.51C564.46-13.84,648.54,24.39,693.35,103.06Z"/><path class="cls-1" d="M694.57,978.4c-52.9,78.19-120.54,112.65-209.71,98.49,24.13-31.12,48.45-62.83,73.36-94.07,2.38-3,8.42-4.2,12.77-4.23C610.69,978.27,650.4,978.4,694.57,978.4Z"/><path class="cls-1" d="M425.34,541.11C420.42,626.6,411.49,710.34,376.8,789a247.91,247.91,0,0,1-37.73,60.35c-30.88,36.11-72.9,37.54-102.69.89-20.63-25.39-38.88-55.31-49-86.22-49-149.81-48.26-300.85.83-450.56,9.45-28.8,26.17-56.67,45.09-80.57,31.29-39.54,72.22-39,106.23-1.71,39,42.8,55.52,96.58,65.64,151.54C414.81,435,418.84,488.28,425.34,541.11Z"/></svg>