<svg width="50" height="58" viewBox="0 0 50 58" fill="none" xmlns="http://www.w3.org/2000/svg">
<path fill-rule="evenodd" clip-rule="evenodd" d="M11.9321 13.1534C20.7638 15.9569 29.4236 15.8148 38.2585 13.1576C38.1946 12.8731 38.1397 12.6137 38.0885 12.3717C37.9868 11.8912 37.8997 11.4793 37.7851 11.0754C37.7213 10.8521 37.6581 10.6285 37.5948 10.4048C36.7565 7.44174 35.9161 4.4715 33.9537 1.99688C32.3426 -0.0353508 30.5285 -0.259439 28.3941 1.20805C25.9194 2.90973 24.3051 2.92144 21.885 1.25489C19.6446 -0.285521 17.7748 -0.0816588 16.1415 2.10972C13.732 5.34277 12.8334 9.17995 11.9321 13.1534ZM25.0296 39.7639C17.4416 39.6915 11.4128 34.0414 10.8148 26.3953C10.7544 25.6229 10.4549 25.2168 9.81076 24.8112C5.57651 22.144 2.43435 18.4904 0.302642 13.956C-0.140027 13.0138 -0.182973 12.1276 0.762272 11.4702C1.69903 10.8193 2.65648 10.9209 3.40398 11.747C6.5138 15.1855 10.5805 16.7632 14.9388 17.7112C21.6971 19.1819 28.4909 19.1451 35.2327 17.6745C39.4887 16.7462 43.5167 15.2164 46.5619 11.8333C47.2595 11.0583 48.1062 10.7687 49.0466 11.4324C49.977 12.0898 49.9818 12.9665 49.554 13.9192C47.4901 18.5107 44.2356 22.0631 40.0676 24.7963C39.4033 25.2317 39.1043 25.6666 39.0603 26.5023C38.668 33.8189 32.2729 39.8331 25.0296 39.7639ZM25.0229 57.7398C18.0766 57.7398 11.1298 57.7382 4.18242 57.735C1.83972 57.7307 0.371231 56.697 0.0823036 54.7542C-0.023725 54.0303 0.109344 53.2255 0.310798 52.5075C1.66054 47.6994 6.37351 43.7366 11.3494 43.504C14.818 43.3417 18.2952 43.3509 21.7718 43.3602H21.7719C22.7864 43.3629 23.8009 43.3656 24.8151 43.364C25.8284 43.3626 26.842 43.3567 27.8557 43.3508H27.856H27.8562C31.291 43.3309 34.7267 43.311 38.154 43.463C43.5683 43.7036 47.9441 47.2188 49.6819 52.3792C50.7268 55.4802 49.1311 57.7328 45.8649 57.7382C40.443 57.7477 35.021 57.7477 29.5991 57.7382L25.0229 57.7398Z" fill="#023047"/>
</svg>
