<svg width="9" height="9" viewBox="0 0 9 9" fill="none" xmlns="http://www.w3.org/2000/svg">
<path d="M5.82583 4.49983L8.2502 2.07295C8.4076 1.89405 8.49098 1.66193 8.48337 1.42376C8.47577 1.18559 8.37776 0.959258 8.20926 0.790763C8.04077 0.622268 7.81443 0.524258 7.57627 0.516654C7.3381 0.50905 7.10598 0.592423 6.92708 0.749827L4.5002 3.1742L2.06895 0.742327C1.98187 0.655244 1.87849 0.586166 1.76471 0.539037C1.65093 0.491908 1.52898 0.467651 1.40583 0.467651C1.28267 0.467651 1.16072 0.491908 1.04695 0.539037C0.933166 0.586166 0.829783 0.655244 0.742701 0.742327C0.655618 0.829409 0.58654 0.932792 0.539411 1.04657C0.492282 1.16035 0.468025 1.2823 0.468025 1.40545C0.468025 1.52861 0.492282 1.65055 0.539411 1.76433C0.58654 1.87811 0.655618 1.98149 0.742701 2.06858L3.17458 4.49983L0.750201 6.92608C0.655121 7.01107 0.578382 7.11457 0.524678 7.23024C0.470974 7.34591 0.441435 7.47132 0.437867 7.5988C0.434299 7.72628 0.456778 7.85315 0.503929 7.97164C0.551079 8.09013 0.62191 8.19776 0.712087 8.28794C0.802265 8.37812 0.909892 8.44895 1.02839 8.4961C1.14688 8.54325 1.27375 8.56573 1.40123 8.56216C1.52871 8.55859 1.65412 8.52905 1.76979 8.47535C1.88546 8.42164 1.98896 8.34491 2.07395 8.24983L4.5002 5.82545L6.92395 8.24983C7.09982 8.4257 7.33836 8.5245 7.58708 8.5245C7.8358 8.5245 8.07433 8.4257 8.2502 8.24983C8.42607 8.07395 8.52488 7.83542 8.52488 7.5867C8.52488 7.33798 8.42607 7.09945 8.2502 6.92358L5.82583 4.49983Z" fill="#FFF7F3"/>
</svg>
