<svg width="60" height="60" viewBox="0 0 60 60" fill="none" xmlns="http://www.w3.org/2000/svg">
<g clip-path="url(#clip0_173_2592)">
<path d="M3.77514 15.1975C4.2676 15.1968 4.75531 15.2937 5.21014 15.4825C5.66497 15.6713 6.07791 15.9483 6.42514 16.2975L25.6076 35.4775C26.188 36.058 26.8771 36.5185 27.6355 36.8327C28.3939 37.1469 29.2067 37.3086 30.0276 37.3086C30.8485 37.3086 31.6614 37.1469 32.4198 36.8327C33.1782 36.5185 33.8673 36.058 34.4476 35.4775L53.6001 16.3225C53.9461 15.9643 54.3599 15.6787 54.8174 15.4821C55.2749 15.2856 55.767 15.1821 56.2649 15.1778C56.7628 15.1735 57.2566 15.2684 57.7175 15.4569C58.1783 15.6455 58.597 15.9239 58.9491 16.276C59.3012 16.6281 59.5797 17.0468 59.7682 17.5077C59.9568 17.9685 60.0517 18.4623 60.0473 18.9603C60.043 19.4582 59.9396 19.9503 59.743 20.4078C59.5465 20.8653 59.2608 21.2791 58.9026 21.625L39.7501 40.78C37.1699 43.3554 33.6732 44.8019 30.0276 44.8019C26.382 44.8019 22.8854 43.3554 20.3051 40.78L1.12264 21.6C0.597849 21.0755 0.240423 20.4072 0.0955874 19.6796C-0.0492479 18.9519 0.0250175 18.1976 0.308986 17.5122C0.592955 16.8268 1.07386 16.241 1.69086 15.8289C2.30786 15.4169 3.03321 15.1972 3.77514 15.1975Z" fill="#021F2E"/>
</g>
<defs>
<clipPath id="clip0_173_2592">
<rect width="60" height="60" fill="white"/>
</clipPath>
</defs>
</svg>
