<svg width="25" height="25" viewBox="0 0 25 25" fill="none" xmlns="http://www.w3.org/2000/svg">
<path d="M16.9366 3.11564C17.8134 3.11564 18.6452 3.11194 19.477 3.11564C20.8637 3.12305 21.8705 4.11103 21.8716 5.48697C21.8761 11.1918 21.8761 16.8967 21.8716 22.6016C21.8716 23.9477 20.8834 24.984 19.5417 24.9884C14.8621 25.0039 10.1824 25.0039 5.50273 24.9884C4.12018 24.984 3.16336 23.9648 3.13678 22.5071C3.11367 21.2666 3.13169 20.0254 3.13169 18.7844C3.13169 14.4316 3.13223 10.0788 3.13331 5.7261C3.13539 4.05709 4.08922 3.11564 5.75257 3.11495C6.3997 3.11495 7.04683 3.09805 7.69396 3.12212C7.99927 3.1337 8.13886 3.02953 8.27337 2.75175C9.13452 0.978109 10.552 -0.0105632 12.5347 8.51301e-05C14.5175 0.0107334 15.9206 1.00774 16.7804 2.78531C16.8284 2.88485 16.8749 2.98624 16.9366 3.11564ZM8.56134 12.2112C8.23778 11.851 7.95697 11.5044 7.63918 11.1968C7.25738 10.8264 6.8379 10.8278 6.50671 11.154C6.19308 11.4632 6.20163 11.926 6.55293 12.2894C7.04128 12.7952 7.54073 13.2906 8.04272 13.7829C8.38801 14.1216 8.79662 14.1517 9.13313 13.8262C10.2104 12.7845 11.2735 11.7267 12.3013 10.6364C12.4573 10.4708 12.4938 10.0627 12.4071 9.83496C12.3288 9.62893 12.002 9.38773 11.7921 9.39513C11.5183 9.40393 11.2028 9.59005 10.9911 9.79074C10.187 10.5526 9.41763 11.3516 8.56134 12.2112ZM14.894 17.1781C13.8972 17.1781 12.9001 17.1712 11.9033 17.1807C11.286 17.1867 10.9733 17.4626 10.9772 17.9622C10.9809 18.4578 11.2945 18.7281 11.9172 18.7305C13.874 18.7371 15.8308 18.7371 17.7876 18.7305C18.3956 18.7288 18.7437 18.4467 18.7583 17.9758C18.7731 17.4883 18.4083 17.1841 17.7737 17.1793C16.815 17.1726 15.855 17.1779 14.8949 17.1781H14.894ZM15.5996 14.0281C16.3743 14.0281 17.1481 14.0359 17.9237 14.0253C18.4322 14.0184 18.7754 13.7086 18.7557 13.2644C18.734 12.7831 18.4322 12.4952 17.9764 12.4875C16.4274 12.4625 14.8783 12.4617 13.3288 12.485C12.8153 12.4924 12.5199 12.8429 12.5338 13.2952C12.5486 13.7561 12.8467 14.0211 13.3869 14.0272C14.1239 14.0334 14.8618 14.0281 15.5996 14.0281ZM10.9772 4.69784C10.9862 5.56059 11.6692 6.23398 12.5296 6.22842C13.3698 6.22287 14.0802 5.51082 14.0804 4.67307C14.0804 3.81241 13.3432 3.09735 12.476 3.11726C11.6153 3.13578 10.9682 3.81959 10.9772 4.69668V4.69784ZM7.80513 16.7888C7.57486 16.794 7.35132 16.8675 7.16276 17C6.9742 17.1324 6.82909 17.3179 6.74578 17.533C6.66248 17.7481 6.64471 17.9831 6.69473 18.2082C6.74474 18.4334 6.8603 18.6387 7.02679 18.7981C7.19328 18.9575 7.40322 19.0639 7.63007 19.1038C7.85692 19.1437 8.09049 19.1153 8.30125 19.0223C8.512 18.9292 8.69048 18.7757 8.81412 18.5811C8.93776 18.3864 9.001 18.1595 8.99585 17.9288C8.98755 17.6199 8.85777 17.3268 8.63477 17.1133C8.41176 16.8998 8.11358 16.7832 7.80513 16.7888Z" fill="#023047"/>
</svg>
