<svg width="60" height="60" viewBox="0 0 60 60" fill="none" xmlns="http://www.w3.org/2000/svg">
<path d="M17.1301 58.5934C15.2221 58.5849 13.3658 57.9723 11.8276 56.8434C10.2556 55.7376 9.08262 54.1538 8.48309 52.3278C7.88355 50.5017 7.88952 48.5308 8.50009 46.7084L11.4251 37.6609L3.72509 32.0309C2.1812 30.9029 1.03364 29.3155 0.446601 27.4958C-0.14044 25.6761 -0.136881 23.7173 0.456771 21.8997C1.05042 20.0822 2.20374 18.4989 3.75173 17.3765C5.29971 16.2542 7.16303 15.6502 9.07509 15.6509H18.5001L21.3626 6.72593C21.9501 4.89827 23.1024 3.30423 24.6538 2.17338C26.2051 1.04253 28.0753 0.433228 29.9951 0.433228C31.9148 0.433228 33.7851 1.04253 35.3364 2.17338C36.8877 3.30423 38.0401 4.89827 38.6276 6.72593L41.5001 15.6509H50.9251C52.8369 15.6507 54.6999 16.2551 56.2475 17.3776C57.795 18.5002 58.9479 20.0835 59.5413 21.9009C60.1346 23.7184 60.138 25.6769 59.5509 27.4964C58.9638 29.3159 57.8163 30.9031 56.2726 32.0309L48.5751 37.6609L51.5001 46.7084C52.0898 48.5335 52.0855 50.4985 51.4878 52.3209C50.89 54.1434 49.7296 55.7292 48.1736 56.8504C46.6175 57.9717 44.7459 58.5704 42.8279 58.5606C40.91 58.5508 39.0446 57.933 37.5001 56.7959L30.0001 51.2809L22.5001 56.7984C20.9482 57.9559 19.066 58.585 17.1301 58.5934ZM9.07509 23.1509C8.74511 23.1509 8.42355 23.2552 8.15638 23.4488C7.88921 23.6425 7.6901 23.9157 7.5875 24.2293C7.4849 24.543 7.48406 24.881 7.5851 25.1951C7.68614 25.5093 7.88389 25.7834 8.15009 25.9784L18.0401 33.2059C18.6769 33.6716 19.1507 34.3262 19.394 35.0767C19.6372 35.8271 19.6376 36.6352 19.3951 37.3859L15.6451 49.0109C15.541 49.3263 15.54 49.6665 15.642 49.9825C15.7441 50.2985 15.9441 50.5738 16.213 50.7686C16.4818 50.9635 16.8057 51.0677 17.1378 51.0664C17.4698 51.065 17.7928 50.958 18.0601 50.7609L27.7826 43.6084C28.4267 43.1345 29.2054 42.8789 30.0051 42.8789C30.8048 42.8789 31.5835 43.1345 32.2276 43.6084L41.9501 50.7584C42.217 50.9573 42.5404 51.0658 42.8733 51.0681C43.2062 51.0703 43.5311 50.9661 43.8006 50.7708C44.0702 50.5755 44.2703 50.2992 44.3718 49.9822C44.4734 49.6652 44.471 49.324 44.3651 49.0084L40.6151 37.3834C40.3725 36.6327 40.3729 35.8246 40.6162 35.0742C40.8595 34.3237 41.3332 33.6691 41.9701 33.2034L51.8576 25.9759C52.1236 25.7811 52.3213 25.5071 52.4224 25.1932C52.5235 24.8793 52.5228 24.5415 52.4206 24.228C52.3183 23.9145 52.1196 23.6413 51.8528 23.4474C51.586 23.2536 51.2649 23.1489 50.9351 23.1484H38.7501C37.9558 23.1482 37.1822 22.8959 36.5406 22.4277C35.899 21.9595 35.4226 21.2997 35.1801 20.5434L31.5001 9.01593C31.3987 8.70043 31.1998 8.42524 30.9321 8.23002C30.6643 8.03479 30.3415 7.9296 30.0101 7.9296C29.6787 7.9296 29.3559 8.03479 29.0881 8.23002C28.8203 8.42524 28.6214 8.70043 28.5201 9.01593L24.8126 20.5459C24.5705 21.301 24.0952 21.9599 23.4551 22.428C22.815 22.896 22.0431 23.1491 21.2501 23.1509H9.07509Z" fill="#AFAFAF"/>
</svg>
