<svg width="60" height="60" viewBox="0 0 60 60" fill="none" xmlns="http://www.w3.org/2000/svg">
<path d="M3.31701 31.0007L12.217 37.5007L8.83701 47.9682C8.29078 49.5917 8.28387 51.3482 8.81728 52.976C9.35069 54.6037 10.3959 56.0154 11.797 57.0007C13.1741 58.0177 14.843 58.5625 16.5549 58.5539C18.2668 58.5454 19.9301 57.9839 21.297 56.9532L29.9995 50.5482L38.7045 56.9457C40.0791 57.9569 41.739 58.5061 43.4454 58.5144C45.1519 58.5227 46.817 57.9897 48.2014 56.992C49.5858 55.9943 50.6183 54.5834 51.1502 52.9619C51.6822 51.3405 51.6863 49.5922 51.162 47.9682L47.782 37.5007L56.682 31.0007C58.0549 29.997 59.0754 28.5851 59.5979 26.9667C60.1203 25.3483 60.118 23.6062 59.5912 21.9892C59.0644 20.3722 58.0401 18.9631 56.6646 17.963C55.289 16.963 53.6327 16.4232 51.932 16.4207H40.9995L37.682 6.08074C37.1603 4.45314 36.1352 3.03328 34.7544 2.0259C33.3737 1.01853 31.7087 0.475708 29.9995 0.475708C28.2903 0.475708 26.6253 1.01853 25.2446 2.0259C23.8638 3.03328 22.8387 4.45314 22.317 6.08074L18.9995 16.4207H8.07701C6.37637 16.4232 4.71999 16.963 3.34446 17.963C1.96893 18.9631 0.944608 20.3722 0.417809 21.9892C-0.108989 23.6062 -0.111321 25.3483 0.411147 26.9667C0.933615 28.5851 1.95416 29.997 3.32701 31.0007H3.31701Z" fill="#FFBD65"/>
</svg>
