<svg width="25" height="23" viewBox="0 0 25 23" fill="none" xmlns="http://www.w3.org/2000/svg">
<path d="M2.77548 12.908C2.30903 12.908 1.92176 12.9267 1.5368 12.9038C0.888646 12.8647 0.341649 12.645 0.0958123 11.9751C-0.129885 11.3609 0.0425709 10.8019 0.61943 10.2989C4.23182 7.14962 7.84483 4.00144 11.4585 0.854327C12.1851 0.22168 12.8851 0.229319 13.64 0.892522C16.1709 3.11477 18.6994 5.33934 21.2255 7.56622C22.2672 8.4832 23.3081 9.40143 24.3484 10.3209C25.0005 10.8996 25.132 11.3223 24.8808 11.973C24.6494 12.5695 24.0984 12.904 23.3329 12.9096C22.9831 12.9119 22.6336 12.9096 22.2074 12.9096V13.5346C22.2088 15.9029 22.2139 18.2714 22.2102 20.6398C22.2081 21.9692 21.5683 22.6021 20.2338 22.6074C19.1604 22.6111 18.0865 22.6194 17.0134 22.6021C15.9872 22.5854 15.3175 21.9243 15.2965 20.8921C15.2733 19.7453 15.2904 18.5978 15.2874 17.4506C15.2837 16.1948 14.7863 15.6892 13.5513 15.6867C12.7555 15.6848 11.9594 15.6753 11.1638 15.6909C10.2881 15.7078 9.74825 16.2441 9.73714 17.1189C9.72232 18.2844 9.73714 19.4504 9.73066 20.6162C9.72232 21.9393 9.06522 22.6029 7.75934 22.6069C6.70446 22.6118 5.64912 22.6164 4.59448 22.6046C3.46877 22.5921 2.78196 21.9016 2.7764 20.7488C2.7646 18.3617 2.77432 15.9744 2.7764 13.5874C2.77571 13.3864 2.77548 13.1862 2.77548 12.908Z" fill="#023047"/>
</svg>
