<svg width="26" height="22" viewBox="0 0 26 22" fill="none" xmlns="http://www.w3.org/2000/svg">
<g clip-path="url(#clip0_535_851)">
<path d="M12.0443 14.6667C11.6811 14.6667 11.3328 14.8115 11.076 15.0694C10.8191 15.3273 10.6748 15.677 10.6748 16.0417V16.775C10.6748 17.4314 10.4151 18.0609 9.95284 18.5251C9.49055 18.9892 8.86355 19.25 8.20977 19.25H6.74898C6.0952 19.25 5.4682 18.9892 5.0059 18.5251C4.54361 18.0609 4.2839 17.4314 4.2839 16.775V5.225C4.2839 4.56859 4.54361 3.93906 5.0059 3.47491C5.4682 3.01076 6.0952 2.75 6.74898 2.75H8.20977C8.86355 2.75 9.49055 3.01076 9.95284 3.47491C10.4151 3.93906 10.6748 4.56859 10.6748 5.225V5.95833C10.6748 6.32301 10.8191 6.67274 11.076 6.93061C11.3328 7.18847 11.6811 7.33333 12.0443 7.33333C12.4075 7.33333 12.7559 7.18847 13.0127 6.93061C13.2695 6.67274 13.4138 6.32301 13.4138 5.95833V5.225C13.4124 3.83969 12.8636 2.51154 11.888 1.53198C10.9124 0.552413 9.58953 0.00145592 8.20977 0L6.74898 0C5.36922 0.00145592 4.04639 0.552413 3.07076 1.53198C2.09512 2.51154 1.54637 3.83969 1.54492 5.225L1.54492 16.775C1.54637 18.1603 2.09512 19.4885 3.07076 20.468C4.04639 21.4476 5.36922 21.9985 6.74898 22H8.20977C9.58953 21.9985 10.9124 21.4476 11.888 20.468C12.8636 19.4885 13.4124 18.1603 13.4138 16.775V16.0417C13.4138 15.677 13.2695 15.3273 13.0127 15.0694C12.7559 14.8115 12.4075 14.6667 12.0443 14.6667Z" fill="#023047"/>
<path d="M22.1427 8.73063L17.9557 4.5268C17.8285 4.39914 17.6775 4.29788 17.5113 4.22882C17.3452 4.15975 17.1671 4.12423 16.9872 4.12427C16.8073 4.12431 16.6292 4.15992 16.4631 4.22907C16.2969 4.29821 16.146 4.39954 16.0188 4.52726C15.762 4.7852 15.6178 5.135 15.6179 5.49971C15.618 5.68029 15.6534 5.8591 15.7223 6.02592C15.7912 6.19274 15.8921 6.34431 16.0193 6.47197L19.1335 9.59872L7.93565 9.62438C7.57244 9.62438 7.22411 9.76925 6.96728 10.0271C6.71045 10.285 6.56616 10.6347 6.56616 10.9994C6.56616 11.3641 6.71045 11.7138 6.96728 11.9717C7.22411 12.2295 7.57244 12.3744 7.93565 12.3744L19.1819 12.3487L16.0166 15.5268C15.7596 15.7846 15.6153 16.1344 15.6152 16.4991C15.6151 16.8638 15.7593 17.2136 16.0161 17.4715C16.2729 17.7295 16.6212 17.8744 16.9845 17.8745C17.3477 17.8746 17.6961 17.7298 17.953 17.472L22.14 13.2681C22.7386 12.6662 23.075 11.8505 23.0755 11C23.076 10.1494 22.7406 9.33328 22.1427 8.73063Z" fill="#023047"/>
</g>
<defs>
<clipPath id="clip0_535_851">
<rect width="21.9118" height="22" fill="white" transform="translate(1.54492)"/>
</clipPath>
</defs>
</svg>
