<svg width="26" height="25" viewBox="0 0 26 25" fill="none" xmlns="http://www.w3.org/2000/svg">
<path fill-rule="evenodd" clip-rule="evenodd" d="M6.8186 5.60906C10.6591 6.82817 14.4248 6.76637 18.2667 5.61092C18.2389 5.48717 18.215 5.37436 18.1928 5.26912C18.1486 5.06018 18.1107 4.88107 18.0608 4.70544C18.0331 4.60833 18.0056 4.5111 17.9781 4.41386C17.6136 3.12535 17.2481 1.83372 16.3948 0.757619C15.6942 -0.126103 14.9053 -0.223548 13.9772 0.414592C12.901 1.15458 12.199 1.15967 11.1467 0.434961C10.1724 -0.23489 9.35932 -0.14624 8.64904 0.806689C7.60127 2.21259 7.21051 3.8812 6.8186 5.60906ZM12.5141 17.1807C9.21443 17.1493 6.5928 14.6923 6.33275 11.3673C6.30647 11.0315 6.17622 10.8549 5.89612 10.6785C4.05485 9.51865 2.68847 7.92989 1.76149 5.95807C1.56899 5.54838 1.55032 5.163 1.96136 4.87714C2.36871 4.59406 2.78506 4.63827 3.11011 4.9975C4.46243 6.49274 6.23086 7.1788 8.12608 7.59103C11.0649 8.23056 14.0192 8.21459 16.9509 7.57506C18.8017 7.17139 20.5533 6.50617 21.8775 5.035C22.1808 4.69799 22.549 4.57207 22.958 4.86071C23.3626 5.14656 23.3646 5.52778 23.1786 5.9421C22.2811 7.93869 20.8659 9.48347 19.0534 10.672C18.7646 10.8614 18.6345 11.0505 18.6154 11.4139C18.4448 14.5955 15.6639 17.2108 12.5141 17.1807ZM12.5112 24.9976C9.49054 24.9976 6.4697 24.9969 3.44862 24.9955C2.42989 24.9937 1.79131 24.5442 1.66567 23.6993C1.61957 23.3845 1.67743 23.0346 1.76503 22.7223C2.35197 20.6315 4.40142 18.9083 6.56522 18.8071C8.07349 18.7365 9.58549 18.7406 11.0973 18.7446H11.0975H11.0975C11.5386 18.7458 11.9798 18.7469 12.4208 18.7463C12.8614 18.7456 13.3022 18.7431 13.7429 18.7405H13.7431C15.2368 18.7319 16.7309 18.7232 18.2213 18.7893C20.5757 18.8939 22.4785 20.4225 23.2342 22.6665C23.6886 24.015 22.9947 24.9946 21.5744 24.9969C19.2166 25.0011 16.8589 25.0011 14.5011 24.9969L12.5112 24.9976Z" fill="#023047"/>
</svg>
