<svg width="25" height="23" viewBox="0 0 25 23" fill="none" xmlns="http://www.w3.org/2000/svg">
<g clip-path="url(#clip0_1024_2568)">
<path d="M1.38558 11.0687C0.853176 11.0242 0.426787 10.8164 0.164518 10.3388C-0.298445 9.49485 0.26938 8.368 1.23165 8.31661C2.23581 8.26267 3.24762 8.24022 4.2497 8.30411C4.91267 8.34647 5.22331 8.11499 5.51521 7.53166C6.67077 5.22263 7.88998 2.94554 9.08767 0.656655C9.45433 -0.0428816 10.2085 -0.208391 10.7722 0.28073C11.1367 0.596702 11.2004 1.11661 10.9275 1.64022C10.2826 2.87695 9.63527 4.1126 8.98558 5.34716C8.51105 6.25318 8.03705 7.15936 7.56359 8.06568C7.53628 8.118 7.51614 8.17378 7.4791 8.2592H17.5159C17.4835 8.18166 17.4604 8.11244 17.427 8.04878C16.3116 5.91468 15.1951 3.78088 14.0775 1.6474C13.684 0.898322 14.008 0.151794 14.7985 0.0138314C15.2342 -0.0620946 15.6643 0.178878 15.9115 0.651563C17.1924 3.10064 18.4699 5.55133 19.7441 8.00365C19.8562 8.22008 19.9823 8.29439 20.2231 8.29138C21.3168 8.27841 22.4108 8.2805 23.5046 8.28744C24.4266 8.29346 25.0747 8.96522 24.9932 9.81522C24.9316 10.4583 24.4779 10.9481 23.8358 11.031C23.6539 11.0541 23.5909 11.1333 23.5511 11.2944C22.8397 14.17 22.1258 17.0455 21.4094 19.9208C21.0479 21.3761 19.9742 22.2168 18.4729 22.2171C14.4965 22.2171 10.5202 22.2171 6.54392 22.2171C4.98443 22.2171 3.96429 21.4099 3.58859 19.8969C2.86012 16.9634 2.1254 14.0312 1.38558 11.0687ZM13.1946 15.2453C13.1946 14.5773 13.2009 13.9092 13.1925 13.2414C13.1865 12.7698 12.8946 12.468 12.4659 12.4638C12.084 12.4599 11.7766 12.8043 11.7698 13.2486C11.7661 13.4914 11.7698 13.7347 11.7698 13.9773C11.7698 15.0532 11.7671 16.1289 11.771 17.2046C11.7729 17.737 12.1277 18.0643 12.6043 17.9858C12.9833 17.9236 13.1867 17.6722 13.1923 17.2233C13.2002 16.5641 13.1946 15.9046 13.1946 15.2453ZM18.0594 15.2314C18.0594 14.5634 18.0666 13.8951 18.0569 13.227C18.0504 12.7805 17.7587 12.4682 17.3701 12.4608C16.9902 12.4539 16.6756 12.7749 16.6724 13.2136C16.6643 14.5673 16.6666 15.9219 16.6724 17.2745C16.6724 17.5247 16.7527 17.7516 16.987 17.8928C17.4992 18.2016 18.0476 17.8583 18.0576 17.2097C18.0675 16.5492 18.0597 15.8898 18.0594 15.2314ZM8.2872 15.2673H8.28906C8.28906 14.5648 8.29947 13.862 8.28558 13.1608C8.2754 12.6578 7.79947 12.3217 7.37424 12.5104C7.05017 12.6541 6.90734 12.921 6.90896 13.281C6.91498 14.5817 6.91105 15.8826 6.9122 17.1835C6.9122 17.2698 6.90179 17.3668 6.93535 17.4405C7.00202 17.5847 7.071 17.7451 7.18535 17.8467C7.39646 18.0347 7.66197 18.0476 7.91753 17.9337C8.17308 17.8198 8.28281 17.5937 8.28489 17.3236C8.29091 16.6374 8.2872 15.9523 8.2872 15.2673Z" fill="#023047"/>
</g>
<defs>
<clipPath id="clip0_1024_2568">
<rect width="25" height="22.2176" fill="white"/>
</clipPath>
</defs>
</svg>
