<svg id="Layer_1" data-name="Layer 1" xmlns="http://www.w3.org/2000/svg" viewBox="0 0 1080 1080"><defs><style>.cls-1{fill:#023047;}</style></defs><path class="cls-1" d="M59.85,538.27c-23-1.92-41.42-10.9-52.75-31.52-20-36.47,4.53-85.15,46.1-87.37,43.38-2.33,87.09-3.3,130.38-.53,28.64,1.82,42.06-8.18,54.67-33.38,49.92-99.75,102.59-198.12,154.33-297C408.42,58.25,441,51.09,465.35,72.24c15.75,13.65,18.5,36.1,6.71,58.72q-41.79,80.17-83.89,160.18-30.75,58.71-61.43,117.44c-1.18,2.26-2.05,4.68-3.65,8.37H756.68c-1.4-3.36-2.4-6.35-3.84-9.1q-72.29-138.33-144.7-276.58c-17-32.36-3-64.61,31.15-70.56,18.82-3.29,37.4,7.13,48.08,27.54q83,158.7,165.57,317.62c4.84,9.34,10.29,12.55,20.69,12.43,47.25-.57,94.51-.48,141.76-.17,39.83.25,67.83,29.28,64.31,65.94-2.66,27.78-22.26,48.94-50,52.52-7.86,1-10.58,4.42-12.3,11.38Q971.3,734.36,924.88,920.68c-15.62,62.87-62,99.19-126.86,99.2q-257.67,0-515.33,0c-67.37,0-111.44-34.87-127.67-100.23C123.55,792.92,91.81,666.25,59.85,538.27ZM570,718.7c0-28.86.27-57.72-.09-86.57-.26-20.37-12.87-33.41-31.39-33.59-16.5-.17-29.78,14.71-30.07,33.9-.16,10.5,0,21,0,31.49,0,46.47-.12,92.94.05,139.41.08,23,15.41,37.14,36,33.75,16.37-2.69,25.16-13.55,25.4-32.94C570.24,775.67,570,747.18,570,718.7Zm210.19-.65c0-28.86.31-57.73-.11-86.59-.28-19.29-12.88-32.78-29.67-33.09-16.41-.31-30,13.56-30.14,32.52-.35,58.47-.25,116.94,0,175.42,0,10.81,3.47,20.61,13.59,26.71,22.13,13.34,45.82-1.48,46.25-29.51C780.51,775,780.17,746.54,780.16,718.05ZM358,719.65h.08c0-30.35.45-60.7-.15-91-.44-21.73-21-36.25-39.37-28.09-14,6.2-20.17,17.73-20.1,33.28.26,56.2.09,112.4.14,168.59,0,3.73-.45,7.92,1,11.1,2.88,6.23,5.86,13.16,10.8,17.55,9.12,8.12,20.59,8.68,31.63,3.76s15.78-14.69,15.87-26.36C358.16,778.84,358,749.25,358,719.65Z"/></svg>