<svg width="25" height="21" viewBox="0 0 25 21" fill="none" xmlns="http://www.w3.org/2000/svg">
<path d="M14.5964 16.0632C11.925 16.0632 9.25126 16.0655 6.57982 16.0632C4.97326 16.0609 4.18387 15.2669 4.18387 13.6464C4.18155 10.1532 4.18155 6.65996 4.18387 3.16441C4.18618 1.62035 4.97789 0.803178 6.51269 0.800863C11.8949 0.793918 17.2794 0.793918 22.6617 0.800863C24.1525 0.803178 24.9859 1.62961 24.9905 3.12506C25.0044 6.65765 25.0021 10.1902 24.9905 13.7228C24.9859 15.2368 24.1363 16.0586 22.6107 16.0609C19.9416 16.0679 17.2702 16.0632 14.5964 16.0632ZM14.5941 13.2714C15.9183 13.2714 17.2424 13.2737 18.5642 13.2691C19.2425 13.2668 19.474 13.0006 19.4046 12.3269C19.3027 11.3361 18.4878 10.519 17.4461 10.4981C15.5386 10.4588 13.6311 10.4611 11.7236 10.4958C10.6865 10.5143 9.89018 11.2968 9.74665 12.3084C9.65406 12.9658 9.90407 13.2668 10.5638 13.2691C11.9088 13.276 13.2515 13.2714 14.5941 13.2714ZM14.5015 9.09759C16.0132 9.14157 17.3026 7.93781 17.342 6.4493C17.3836 4.89367 16.1845 3.59267 14.6775 3.55332C13.1704 3.51628 11.8486 4.72468 11.8069 6.1854C11.756 7.78039 12.932 9.05129 14.5015 9.09759Z" fill="#023047"/>
<path d="M12.2699 20.2023C10.0082 20.2023 7.74417 20.2069 5.48248 20.2023C2.23 20.1907 0.0146058 17.98 0.00534611 14.7229C-0.00391363 11.4241 0.000716243 8.12529 0.00534611 4.82651C0.00766105 3.82183 0.794739 3.2593 1.56561 3.69914C2.01008 3.95378 2.09342 4.37973 2.09342 4.85429C2.08647 8.21095 2.08184 11.5676 2.09342 14.9266C2.10036 16.6651 3.25783 17.9244 4.98014 18.098C5.25099 18.1258 5.52415 18.1304 5.79731 18.1304C10.2628 18.1328 14.7306 18.1304 19.1962 18.1328C19.43 18.1328 19.6661 18.1281 19.8953 18.1628C20.4902 18.2485 20.8444 18.6814 20.8097 19.2509C20.7773 19.7995 20.3536 20.1977 19.7564 20.1977C17.2609 20.2046 14.7654 20.2023 12.2699 20.2023Z" fill="#023047"/>
</svg>
