<svg width="22" height="25" viewBox="0 0 22 25" fill="none" xmlns="http://www.w3.org/2000/svg">
<g clip-path="url(#clip0_1024_2570)">
<path d="M2.1446 4.25093C2.1446 5.08241 2.14066 5.88403 2.15062 6.68519C2.15062 6.76343 2.22261 6.85695 2.28673 6.91552C2.8439 7.42477 2.86821 8.08658 2.36427 8.63565C2.28256 8.72477 2.22955 8.90302 2.25594 9.01876C2.45386 9.88427 2.67538 10.744 2.88765 11.606C2.91894 11.7211 2.94115 11.8384 2.95409 11.9569C2.98163 12.2891 2.79761 12.4924 2.46173 12.4951C1.87585 12.5002 1.28997 12.4984 0.704088 12.4951C0.295755 12.4935 0.0918196 12.2824 0.175616 11.8771C0.322375 11.1688 0.509412 10.4676 0.679783 9.7632C0.712884 9.62663 0.737653 9.48681 0.783255 9.3544C0.898996 9.01552 0.915662 8.74468 0.61844 8.43589C0.224921 8.02663 0.32307 7.38913 0.77631 6.98658C0.934181 6.84653 0.977468 6.7088 0.975616 6.51297C0.967977 5.67778 0.972375 4.8426 0.972375 3.98797C0.808023 3.93033 0.645292 3.88033 0.488347 3.81644C0.18719 3.69422 0.0200603 3.45649 0.00756035 3.14121C-0.00493965 2.82223 0.144366 2.55047 0.452699 2.45371C1.01867 2.27408 1.59483 2.12616 2.17168 1.98635C4.77971 1.3544 7.38858 0.726318 9.9983 0.10209C10.78 -0.0865676 11.5451 0.0094972 12.3131 0.196997C15.1941 0.897923 18.0764 1.59499 20.9599 2.2882C21.1174 2.32685 21.271 2.37985 21.4189 2.44653C21.7164 2.58033 21.8701 2.83334 21.8606 3.14607C21.8511 3.4588 21.6828 3.72084 21.3745 3.81204C20.7839 3.98681 20.1842 4.13126 19.586 4.2794C18.799 4.47431 18.0094 4.66065 17.1513 4.8676C17.1513 5.59121 17.1564 6.31366 17.1513 7.03612C17.1423 8.03427 17.0971 9.01945 16.7559 9.98311C15.7805 12.7377 12.8177 14.4845 9.92839 13.9715C6.82886 13.4215 4.71126 10.9065 4.68464 7.74144C4.67724 6.87339 4.67839 6.00533 4.68812 5.13727C4.69066 4.92616 4.6314 4.83635 4.41659 4.79005C3.66705 4.62547 2.92261 4.43751 2.1446 4.25093Z" fill="#023047"/>
<path d="M10.9989 20.3102C11.0702 20.2141 11.1303 20.1074 11.2139 20.0236C12.7301 18.5023 14.2467 16.9821 15.7637 15.463C15.9044 15.3213 16.0195 15.2813 16.2137 15.3572C19.4565 16.6227 21.35 18.9607 21.8053 22.4232C21.866 22.8861 21.863 23.385 21.7533 23.8338C21.5824 24.5322 21.0456 24.8938 20.3377 24.9857C20.1882 25.0051 20.0347 24.9991 19.8829 24.9991C13.8952 24.9991 7.9082 24.9991 1.92178 24.9991C0.649787 24.9991 -0.042574 24.2787 0.00256488 23.004C0.123861 19.5753 2.38914 16.4894 5.59122 15.3718C5.83312 15.2873 5.97178 15.3375 6.14493 15.5125C7.64006 17.0236 9.14724 18.5234 10.6479 20.0294C10.731 20.113 10.7868 20.2225 10.8563 20.3199L10.9989 20.3102Z" fill="#023047"/>
</g>
<defs>
<clipPath id="clip0_1024_2570">
<rect width="21.8609" height="25" fill="white"/>
</clipPath>
</defs>
</svg>
