<svg width="60" height="60" viewBox="0 0 60 60" fill="none" xmlns="http://www.w3.org/2000/svg">
<g clip-path="url(#clip0_195_2098)">
<path d="M56.2249 44.8025C55.7324 44.8032 55.2447 44.7063 54.7899 44.5175C54.335 44.3287 53.9221 44.0517 53.5749 43.7025L34.3924 24.5225C33.812 23.942 33.1229 23.4815 32.3645 23.1673C31.6061 22.8531 30.7933 22.6914 29.9724 22.6914C29.1515 22.6914 28.3386 22.8531 27.5802 23.1673C26.8218 23.4815 26.1327 23.942 25.5524 24.5225L6.39986 43.6775C6.05393 44.0357 5.64014 44.3213 5.18263 44.5179C4.72511 44.7144 4.23304 44.8179 3.73512 44.8222C3.23719 44.8265 2.74339 44.7316 2.28253 44.5431C1.82167 44.3545 1.40298 44.0761 1.05088 43.724C0.698784 43.3719 0.420334 42.9532 0.231781 42.4923C0.0432281 42.0315 -0.0516548 41.5377 -0.0473251 41.0397C-0.0429993 40.5418 0.0604477 40.0497 0.256981 39.5922C0.453514 39.1347 0.739197 38.7209 1.09736 38.375L20.2499 19.22C22.8301 16.6446 26.3268 15.1981 29.9724 15.1981C33.618 15.1981 37.1146 16.6446 39.6949 19.22L58.8774 38.4C59.4022 38.9245 59.7596 39.5928 59.9044 40.3204C60.0492 41.0481 59.975 41.8024 59.691 42.4878C59.407 43.1732 58.9261 43.759 58.3091 44.1711C57.6921 44.5831 56.9668 44.8028 56.2249 44.8025Z" fill="#021F2E"/>
</g>
<defs>
<clipPath id="clip0_195_2098">
<rect width="60" height="60" fill="white" transform="translate(60 60) rotate(-180)"/>
</clipPath>
</defs>
</svg>
