<svg width="22" height="25" viewBox="0 0 22 25" fill="none" xmlns="http://www.w3.org/2000/svg">
<path d="M10.8377 1.44857e-06C14.2705 0.00229767 17.0145 2.76006 17.026 6.21358C17.0352 9.63265 14.2498 12.3812 10.7917 12.3652C7.30607 12.3491 4.63097 9.61199 4.64704 6.0781C4.66082 2.72562 7.44154 -0.00229477 10.8377 1.44857e-06Z" fill="#023047"/>
<path d="M10.8156 24.9985C7.85115 24.9985 4.88673 25.0008 1.92231 24.9985C0.647904 24.9962 -0.0179997 24.3257 0.000370045 23.0674C0.0554794 19.049 3.10257 15.483 7.16918 15.0421C9.54117 14.7849 11.9844 14.7803 14.3564 15.0237C18.563 15.4554 21.5596 18.9388 21.6721 23.1638C21.702 24.2568 20.997 24.9916 19.8834 24.9962C16.8615 25.0031 13.8374 24.9985 10.8156 24.9985Z" fill="#023047"/>
</svg>
