<svg id="Layer_9" data-name="Layer 9" xmlns="http://www.w3.org/2000/svg" viewBox="0 0 1080 1080"><defs><style>.cls-1{fill:#023047;}</style></defs><path class="cls-1" d="M211.57,809.84H240c0-24.74-2.35-49.26.56-73.14,4.24-34.85-8.27-56.59-36.9-77.55-52.51-38.45-93.79-89-129.08-143.7-27.09-42-15.38-95.37,25.07-123,39.34-26.85,92.38-18.63,121.66,20.46C250.06,451.26,279,489.1,315.8,520.35,387.89,581.57,471.32,604.54,565,600,666.78,595.13,746,548.47,811.6,474.24c17-19.27,31.71-40.59,47.53-60.92,34.34-44.12,94.34-48.84,134.83-10.66,31.91,30.1,35.63,79.83,9.44,118.16-42.15,61.67-92,116-152.5,160-7.34,5.33-10,11-9.92,19.84.43,36,.18,72.08.18,108.87,4.9.33,8.59.22,12.13.88,13.77,2.57,18.82-4.06,23.14-16.75,24.12-70.85,105.16-95.38,164.71-50.63,33,24.85,47.17,68.41,33.92,112.33-10.55,35-22.75,69.54-36.13,103.54-13.64,34.69-41.45,53.32-77.42,60-9.16,1.69-18.69,1.85-28,1.86q-395,.13-790,.14c-40.84,0-74.7-13.78-96.57-49.33-8.44-13.71-13.84-29.55-19-45-9.33-27.9-19.17-55.82-25.69-84.44-11.13-48.88,21-100.38,70.52-116.57,48.81-16,105.5,7.75,126,53C203.4,788.78,207.29,799.33,211.57,809.84ZM714,839.79c4.39-45-29.47-95.76-75-111.11-14-4.72-29.2-7.89-43.88-8-45.42-.36-91.15-1.87-136.21,2.59-55.68,5.52-100.77,62.27-97.26,116.53Z"/><path class="cls-1" d="M839.2,170.69c-1.6,28.08-12.89,56.4-40.28,76.44-7,5.12-8.8,10.57-7.58,19,7,48-3.18,93.11-24.59,136-26.86,53.81-69,92.45-123.45,116C588.49,541.85,531,545.81,472.76,530c-58.8-15.92-106.25-48.8-141.52-97.94-25.19-35.1-41-74.73-43.55-118.47-1-17.19.8-34.53.28-51.78-.16-5-2.57-11.75-6.3-14.61-34.12-26.1-48-68.55-35.73-112.08C258,92.26,292.2,64.55,339,59.71c38.86-4,81.47,19.51,98.85,56.65,5.21,11.14,10.6,12.17,21.34,10.47a517.39,517.39,0,0,1,166.74.53c6.93,1.15,11.7,1.13,15.55-6.86,22.18-46,68.39-69.28,115.73-59C805,71.79,838.93,115,839.2,170.69ZM540.44,299.92a146.25,146.25,0,0,0-81,23.37c-46.53,29.58-51.53,87.44-10.48,123.84,45.93,40.73,128,43.43,176.08,5.8,42.55-33.28,45.29-84.2,5.82-121.18C605.6,308.06,574.17,300.34,540.44,299.92ZM451.3,239.63c-15.66-.31-30.27,13.32-30.66,28.6-.41,16.45,13.23,30.72,29.62,31,15.48.25,29.87-13.82,29.93-29.24C480.25,254.23,466.64,239.93,451.3,239.63Zm180.66,0c-15.62-.55-30.34,12.9-31,28.27a30.56,30.56,0,0,0,29.18,31.38c15.38.48,30.06-13.49,30.35-28.89C660.81,254.68,647.3,240.13,632,239.59Z"/><path class="cls-1" d="M541,420a84.76,84.76,0,0,1-45.22-17.27c-21.36-16.93-19.37-43.52,3.05-59.13,22.18-15.44,46.61-18.42,71.59-6.39,19.47,9.37,29.2,23.88,27.67,39.76-1.77,18.42-16.53,34.48-36.73,39.34C554.58,417.94,547.92,419,541,420,541,419,541.56,418.92,541,420Z"/></svg>