<svg id="Layer_2" data-name="Layer 2" xmlns="http://www.w3.org/2000/svg" viewBox="0 0 1080 1080"><defs><style>.cls-1{fill:#023047;}</style></defs><path class="cls-1" d="M750.4,810.05c-23.43-22.69-48.29-43.46-69.2-67.65-61.12-70.71-88.11-154.16-87.43-247.18.39-53-.17-106,.3-159,.08-9.46-2.66-13.81-11.67-17.36-27-10.62-53.64-22.14-79.95-34.33-5.91-2.73-13.47-9.45-13.71-14.65-.23-4.78,7.44-12,13.23-14.66,29.25-13.41,59-25.68,90.7-39.25-6.49-5.84-11.93-11.07-17.71-15.88-25.54-21.25-51.5-42-76.49-63.87-5.11-4.46-6.68-13-9.88-19.6,6.78-3.08,13.54-8.82,20.34-8.85,129.48-.53,259-.41,388.45-.36,20.07,0,36,8.09,48.14,24.38q60.54,81.14,121.55,161.92c15.54,20.62,15.76,42.36,5,64.81-6.65,13.94-13.77,27.66-21,41.28-10,18.62-25.25,30.3-46.61,31.58-17.75,1.06-35.62.8-53.41.38-19-.45-34.46-10.41-46.74-23.22-24.87-26-54-35.52-89.39-31.33-18.39,2.17-37.24.38-58.72.38,1.54,29.21.51,57.07,5.15,84,4.36,25.22,23.23,41.85,46,53.35,59.77,30.2,120.42,58.81,179,91.22,68.18,37.76,102.2,117.89,91.88,195.11-12.72,95.21-99.56,164.78-188,169.42-19.65,1-39.34,1.91-59,1.92q-393.37.18-786.75-.09c-9.16,0-19.09-.74-27.29-4.31-12-5.23-18-16.16-17-29.74.93-12.84,10.34-22.59,25.73-26,35.63-8,71.27-16,107-23.29,132.73-27,266-50.94,400.93-63.55,69.54-6.5,139.35-10,209-14.84C745.58,810.5,748.31,810.23,750.4,810.05ZM829,220.13c-10.13,18.28,5,40.19,22.42,46.41,23,8.24,43.59-2.69,51.48-28.06Z"/><path class="cls-1" d="M565.35,647.82H199.94c-2.82,0-5.63,0-8.45-.06-13.07-.15-23-5.65-26.8-18.46-3.7-12.42.11-22.81,10.85-30.84q58.56-43.79,116.84-88c9.63-7.27,19.21-14.62,32.07-24.41-56,10.25-107.88,19.77-159.77,29.26L37.53,538.58c-16.49,3-27.11-1.17-33.43-13.71-6.7-13.28-2.37-24.28,7.56-34.09C77,426.17,142,361.1,207.89,297c34.52-33.57,93.46-36.19,133.78-7,63.69,46.09,126.86,92.91,190.53,139,7,5,9.28,10.21,9.16,18.5-.76,55.32-1.72,110.69,13.84,164.65C558.42,623.36,561.57,634.54,565.35,647.82Z"/></svg>