<svg id="Layer_3" data-name="Layer 3" xmlns="http://www.w3.org/2000/svg" viewBox="0 0 1080 1080"><defs><style>.cls-1{fill:#023047;}</style></defs><path class="cls-1" d="M675.82,608.24c0,32.16-.17,62.53.07,92.89.12,15.46-3.77,28.64-17.87,37.11-14.71,8.83-27.83,3.34-40.74-4.43-66.8-40.28-133.52-80.68-200.56-120.55-6-3.56-14.08-5-21.21-5-105.77-.31-211.55-.2-317.32-.22-49.75,0-76.45-26.56-76.51-76,0-6.09.08-12.17,0-18.25-.4-27,11.09-47.76,33.23-62.78C50,440.83,64.92,430.47,80.42,421c7.76-4.76,9.11-9.09,6-18-23.39-67.3-24.64-135.39,1.44-201.69C135,81.48,224,13.9,352.41,3c57.14-4.84,114.94-4.74,172,6.48,60,11.79,115.11,34.73,165.28,69.41,8.27,5.71,14.62,6.64,23.88,2C766.74,54.26,822.54,34.4,880,19.53c27.11-7,54.77-12,82.3-17.24,14-2.7,27,1,37.78,10.62,15.51,14,16.22,30.75,3.73,50.29-27.65,43.26-55.27,86.56-82,130.38-8.46,13.86-13.69,29.64-21.14,44.16-4.44,8.65-1.84,13.36,4.78,19.94,29.11,28.92,60.66,56.22,85.19,88.74,71.77,95.12,102.45,202.83,84.64,321.73C1055.64,799.32,985.16,896.64,870.77,962c-61.27,35-128.37,50.24-198.86,50.44-32.77.09-65.54.39-98.29-.23-9.25-.17-14.45,2.68-18.69,10.8-5.6,10.74-12.67,20.71-19.06,31-10.45,16.88-25.68,25.61-45.42,25.72-41.19.22-82.38.37-123.56,0-24.74-.24-36.4-22.25-22.85-43.09q32.11-49.38,65.31-98c5.27-7.71,5.55-13,0-21-22.07-31.88-43.12-64.47-64.73-96.67-6.62-9.86-10.92-19.77-4.32-31.26,6.44-11.22,16.85-13.35,28.83-13.26,38.84.29,77.7.45,116.54,0,23.86-.3,43,8.58,52.45,30.29,13.28,30.52,33.63,42,67.18,37.94,28.13-3.43,57-.23,85.56-.84,61.94-1.33,109.94-42.7,117.86-100.91,9.71-71.31-42.07-132.19-114.58-134.65C688.63,608.08,683.08,608.24,675.82,608.24ZM271.34,321.17c-.18,27.48,21.94,50.48,48.92,50.86,26.45.37,49.76-23,50-50s-22.48-50.48-49.2-50.67C294.06,271.15,271.51,293.76,271.34,321.17Z"/></svg>