<svg id="Layer_4" data-name="Layer 4" xmlns="http://www.w3.org/2000/svg" viewBox="0 0 1080 1080"><defs><style>.cls-1{fill:#023047;}</style></defs><path class="cls-1" d="M506.28,134.61c0-34.05-.47-65.9.14-97.74.52-27.56,22.69-43.63,46.18-34.12C568.75,9.29,573.73,22.81,573.75,39c0,31.31,0,62.63,0,95.64,6.46,0,11.91-.05,17.36,0,44,.48,88.2-1.22,132,2,66.68,4.85,119,60.78,120.07,129.62,1.4,91.85,1.9,183.76,0,275.59-1.58,76.31-58.86,131.81-135.5,132.62q-168,1.77-336,.05c-76.91-.75-134.45-59.08-135.26-136.14q-1.39-133.58,0-267.17c.77-78.2,59.4-135.6,137.85-136.47,38.89-.43,77.79-.07,116.68-.07ZM472.37,336.73c-.28-37.16-31.38-67.61-68.44-67-36.58.59-66.77,31.47-66.39,67.89.39,36.64,30.85,67,67.15,67C442.07,404.53,472.66,373.87,472.37,336.73Zm270,1.11c.29-37.16-30.25-68-67.38-68.07-36.64,0-67.19,30.15-67.49,66.74s29.77,67.55,66,68.11C710.82,405.2,742.14,374.82,742.42,337.84ZM405.27,573.21c17.27.2,33.23-15.78,33.31-33.36s-15.15-33-33.14-33.68c-17-.63-33.24,15.05-33.9,32.78C370.88,557,386.64,573,405.27,573.21Zm134.62,0c17.19.48,33.35-15.32,33.71-33,.35-17.47-14.67-33.06-32.78-34-17-.91-33.36,14.59-34.26,32.37S521.25,572.68,539.89,573.2Zm135,0c17.19.48,33.35-15.33,33.7-33,.35-17.47-14.67-33.07-32.78-34-17-.89-33.36,14.61-34.26,32.39S656.25,572.68,674.9,573.2Z"/><path class="cls-1" d="M810,1079.87c0-43.22,0-84.43,0-125.64-.08-50.48-26.55-76.87-77.23-76.89q-194-.08-388,0c-47.34,0-74.67,27.64-74.74,75.31q-.08,61.19-.11,122.35a30.12,30.12,0,0,1-.67,3.86c-3.24.32-6.78,1-10.32,1-39.83.07-79.66.19-119.5,0-43.72-.21-72-28.39-71.76-72.35.15-29.48-.08-59.14,2.93-88.4,6.63-64.26,40-112.73,93.94-146.9,35-22.15,74.27-29.91,115.28-29.91q259.38,0,518.77,0c56.39,0,107.3,15.1,149.1,54.24,34.94,32.72,57.12,72.89,61.64,120.91,2.84,30.24,2.92,60.79,3,91.21.18,42.34-28,70.73-70.17,71.17C898.69,1080.22,855.2,1079.87,810,1079.87Z"/><path class="cls-1" d="M168.74,406.09c0,31.89.32,63.77-.08,95.65-.34,27.36-19.95,42.78-44.26,35.54-13.17-3.93-22.77-15.83-22.87-32-.42-67-.56-134.1.07-201.13.19-20.13,16.1-34.9,33.71-34.33,19.1.61,33,15.13,33.3,36.38C169.09,339.51,168.74,372.81,168.74,406.09Z"/><path class="cls-1" d="M911.29,404c0-32.35-.47-64.71.13-97,.51-27.58,22.63-43.58,46.18-34.18,14.34,5.72,20.86,17.45,20.94,32,.37,66.57.49,133.15,0,199.72-.15,20.27-15.27,35-33.16,34.9-19.13-.12-33.57-14.46-33.93-35.55C910.88,470.61,911.3,437.32,911.29,404Z"/><path class="cls-1" d="M438.75,1079.58h-66c-.49-2.6-1.41-5.19-1.42-7.79-.1-29.51-.33-59,0-88.52.27-22.52,13.89-37.95,32.83-38.29,19.91-.35,34.26,15.08,34.49,38.07C439,1014.79,438.75,1046.54,438.75,1079.58Z"/><path class="cls-1" d="M573.75,1079.58h-66c-.49-2.6-1.41-5.19-1.42-7.79-.1-29.51-.33-59,0-88.52.27-22.52,13.89-37.95,32.83-38.29,19.91-.35,34.26,15.08,34.49,38.07C574,1014.79,573.75,1046.54,573.75,1079.58Z"/><path class="cls-1" d="M641.58,1079.22c0-34.68-.78-68.34.3-101.93.6-18.62,16-32.27,32.68-32.28,17.14,0,32.88,13,33.53,31.41,1.2,34,.34,68.09.34,102.8Z"/></svg>