<svg id="Layer_5" data-name="Layer 5" xmlns="http://www.w3.org/2000/svg" viewBox="0 0 1080 1080"><defs><style>.cls-1{fill:#023047;}</style></defs><path class="cls-1" d="M270.66,68.47v75.45c10.65-13,19.48-24.84,29.29-35.76C399.05-2.2,560.25-32.46,690.81,37.62c100,53.64,158.9,138.09,169.59,251.89,8,84.83,11.58,170.09,16.38,255.19,2.24,39.61-18.9,67.64-57.62,76.44-80.26,18.23-160.38,37.41-241.27,52.32-33.08,6.09-67.86,3.45-101.74-4.46-71-16.56-142.4-31.75-213.67-47.33-37.72-8.25-59.36-35.23-59.45-75.47q-.32-145.52-.31-291-.09-106.85-.18-213.69C202.53,13,215.21.29,243.46.23c8,0,15.94-.15,23.9,0,19.59.45,33.72,11.82,36,28.81C305.78,46.43,295.7,61,277,67,274.9,67.71,272.68,68,270.66,68.47Zm478.2,184.42C719.15,157.54,622,93.57,523,101.89c-105.18,8.83-176,87.25-190.79,151ZM591,566.74c20.13-2.93,20.39-2.87,23.76-18.29,17.35-79.23,65.48-135.84,131.75-178.9C767.16,356.11,768,355.42,760.74,330L591,361.94Zm-272.1-236.8c-6.31,26.66-6.46,26.88,15.07,40.49,66.35,41.94,113.6,98.27,130.89,176.27,3.25,14.64,10.77,18.74,23.55,19.4V361.74Z"/><path class="cls-1" d="M538.49,1080H145c-52.44,0-79.48-28.43-77-80.87,6.85-142.38,123.35-255,267.39-256.28q203.77-1.75,407.58,0c147.66,1.35,265.26,116.75,269.15,261.79,1.23,46-26.79,75.22-73.07,75.28Q738.77,1080.17,538.49,1080ZM670.11,978c-.45-1.61-.41-2.79-1-3.19-41-30.92-82-61.93-123.45-92.29-2.86-2.09-10.56-.85-14,1.63C507,901.9,482.86,920.4,458.54,938.69c-16.6,12.48-33.19,25-52.15,39.27Z"/></svg>