<svg id="Layer_6" data-name="Layer 6" xmlns="http://www.w3.org/2000/svg" viewBox="0 0 1080 1080"><defs><style>.cls-1{fill:#023047;}</style></defs><path class="cls-1" d="M251.62,695.25c-22.74-33.28-45.92-66-67.6-99.6-8.51-13.22-14.79-28.22-19.92-43.15-3.67-10.67-9.37-12.9-19.48-12.45-7.76.34-16.32-.35-23.33-3.37-13.74-5.92-19.89-18-19.92-32.77-.13-65.58-.36-131.17.11-196.75.17-23.59,14.55-37.41,38.64-36.31,14.49.66,21-4.11,26.44-17.49C206.84,154.62,275,81.31,372.34,37.42c110.36-49.78,222-49.69,333-1,60.76,26.65,111.39,66.68,152,119a395.83,395.83,0,0,1,58.41,103.43c3.24,8.59,7.31,12,17.08,11.86,34.31-.49,45.56,11.19,45.57,45.17q0,89.23,0,178.48c0,34.35-11.12,46-45.09,45.74-8.51-.06-13.6,1.67-16.79,10.32C897.25,603,867,648.73,828.17,688.89c-.91.94-1.35,2.35-2.59,4.6,15.75,8,31.89,14.92,46.72,24,91,55.58,137.54,137,139.83,243.6.47,21.54.2,43.1,0,64.65-.23,31.61-21.16,54.09-50.29,54.29-29.3.2-50.29-22.14-50.93-53.76-.64-31.8,1.21-64-3.07-95.29-7.88-57.58-39.54-100.41-89.74-130-34.46-20.33-71.95-25.16-110.71-24.12-8.11.22-16.36,3.47-24.14,6.39q-144,54.23-287.75-.65c-28.29-10.84-56.6-6.59-84.27-.7-85.71,18.23-145.63,97.76-142.61,183.94.75,21.52.57,43.11,0,64.64-.8,27.21-21.6,48.27-47.84,49.51-26.4,1.25-51.54-17.61-52.18-44.35-1-41.53-2.84-84,4.21-124.57,17.46-100.38,76.39-170.34,169.6-211.39C246.5,697.8,250.49,695.79,251.62,695.25ZM540.43,709C706.52,709,844,571.49,843.5,405.89,843,237.53,706.78,101.6,538.7,101.76c-165.83.15-303.1,138-302.42,303.76C237,573.08,373.21,709,540.43,709Z"/><path class="cls-1" d="M404.93,1079.86H304.81c-.38-3.7-1-7.23-1-10.76-.07-40.27-.27-80.55,0-120.81.3-42,28.72-70.42,70.83-70.51q164.36-.33,328.72,0c45,.09,72.42,27.72,72.65,72.83.21,41.67,0,83.34-.11,125a20.26,20.26,0,0,1-.91,3.56H472.4c0-32.24-.15-64.38.07-96.52.09-13.11-4.06-24.06-15.1-31.36-10.38-6.85-21.62-8.64-33.22-2.54-12.82,6.75-19.09,17.58-19.16,31.87-.16,28.09-.05,56.19-.06,84.28ZM640.57,945.28c-18.05.09-33.55,16.23-33.18,34.53.36,17.48,15.86,32.62,33.51,32.74,18.27.12,33.8-15.41,33.8-33.8C674.7,960.57,659,945.18,640.57,945.28Z"/><path class="cls-1" d="M540.82,270.44c42.14,0,84.27-.13,126.4,0,66.51.23,108.21,42.33,108.92,108.88.48,44.57-4.39,87.66-28,126.91-34.21,56.83-83.47,92.2-149.69,98.18A679.86,679.86,0,0,1,475.31,604c-47.67-4.43-87.16-28.66-119.4-64.16C309.33,488.6,298.62,426.6,305,360.76c5.15-53.39,47.73-89.67,102.42-90.23C451.87,270.08,496.35,270.44,540.82,270.44Zm-164.07,167-.09,3.24c14.92,5,29.56,11.41,44.85,14.77C441,459.72,451.9,469.8,456,489.67c3.21,15.44,9.78,30.19,14.86,45.24,8.19-15.64,14.72-30.32,18-45.7,4.06-19.29,14.37-29.29,33.52-33.46,15.86-3.46,31-10.09,46.5-15.32-20.89-9.9-41.4-16.25-61.38-23.94A24.24,24.24,0,0,1,495,403.92c-7.78-20.28-14.25-41.07-21.2-61.67a289,289,0,0,0-20.7,53.83c-3.53,13-9.76,20.47-23.43,23.87C411.68,424.41,394.36,431.48,376.75,437.43Z"/></svg>