<svg id="Layer_7" data-name="Layer 7" xmlns="http://www.w3.org/2000/svg" viewBox="0 0 1080 1080"><defs><style>.cls-1{fill:#023047;}</style></defs><path class="cls-1" d="M108.09,474.22c-17.16,14.63-26.17,30-26.66,49.32-.67,26.74-.5,53.5-.55,80.25-.08,38.94-5.72,44.54-45.1,44.31-3.28,0-6.58,0-9.84-.28C10.82,646.51.29,638,.31,623.13.38,581-1.6,538.33,3.65,496.7,10.88,439.36,64.48,388.93,123,381.15c20.14-2.67,37.13-7.08,50.2-25.8,47.2,118.73,133.19,178.94,257.05,184.9l2.2-3.9c-4.29-1.61-8.47-3.63-12.88-4.75-54.2-13.66-100.85-40.36-137.64-82.52C223,381.52,202.82,304,225.51,216.43c3.27-12.63,7.41-25.28,13.15-36.93,3.3-6.71,11-16.3,16-15.88,6.78.57,14.45,8.41,19,15C288.93,201,301,225.74,317.87,246.76c41.23,51.49,96.95,74.73,162.19,76.57a19.34,19.34,0,0,0,4-.49c4.83-22.78,7.85-45.09,14.37-66.31,19.68-64,62.66-107.3,123.7-133.17,30.31-12.85,62.53-15.8,95-15.94,56.8-.26,113.59-.42,170.38.26,9.56.12,26.39,3.36,27.16,7.49,1.88,10.25-3.14,22-6.33,32.84-1.22,4.12-5,7.48-9.62,14h155.48c3.28,0,7.11-1.07,9.74.24,5.67,2.85,10.72,6.92,16,10.49-3.75,5.17-6.4,12.95-11.44,15.1-34.83,14.84-70.17,28.49-105.33,42.54q-12.36,4.93-24.68,10c-20.95,8.59-20.95,8.6-20.95,31.51,0,29.57.12,59.14,0,88.71-.17,31.86-12.62,49.84-41.86,61.34-13.05,5.13-26,10.57-39,15.81-35,14.1-62.49,4-79.81-29.34-7.32-14.1-15.34-28-21.09-42.71-5.87-15.06-17.31-20.76-32.93-24.89,0,6.4.05,11.89,0,17.37-.62,57.22-.49,114.47-2.18,171.66-1.06,36.15-15,68.52-37.5,96.55-10.24,12.76-14.9,25.43-14.74,42,.78,79.79.42,159.59.3,239.38,0,22.95-4.85,44-26.8,56.55-4.79,2.74-10.23,5.73-15.51,6-22.39,1.17-44.88,2.6-67.24,1.64-34.65-1.5-52.82-28.13-52.65-60.46.36-68.52-.13-137.06.36-205.58.08-10.81-2.45-15.09-13.78-17.38C425,678.75,377,667.87,329.06,656.88c-10.83-2.49-16.63-1.32-20.58,10.83-9.11,28-20.56,55.32-30.12,83.23a43.48,43.48,0,0,0-1.29,22.73C287.58,819.21,300,864.33,309.69,910c6.51,30.57-13.78,58.12-44.72,61.3-22.24,2.28-44.92,1.5-67.33.44-24.87-1.17-41.64-15.67-47.73-39-13.85-53-27.59-106.11-37.71-159.88-3.51-18.65,1.11-40.17,6.8-58.93,10.33-34,24.55-66.82,36.34-100.41,1.61-4.58.57-12.57-2.54-16C121.38,563.44,107.42,523,108.09,474.22Zm676.33-232c-.16,15.11,10.84,26.72,25.91,27.33,13.66.56,25.42-11.29,25.74-25.94s-11.67-27.22-26.13-27.33C795.7,216.18,784.59,227.48,784.42,242.23Z"/></svg>