<svg id="Layer_8" data-name="Layer 8" xmlns="http://www.w3.org/2000/svg" viewBox="0 0 1080 1080"><defs><style>.cls-1{fill:#023047;}</style></defs><path class="cls-1" d="M512.12,394.93c25.74-5.64,50.4-12.82,75.56-16,23.78-3.05,43.55,7.67,54.18,29.66,9.67,20,7.24,40.13-7,57.88-11.79,14.67-28.64,18.18-46.15,20.41C556.05,491,542.15,506,540.54,540.1H667c-2.74,3.53-4,5.71-5.8,7.41-26.16,25.2-44.56,55.14-56,89.62-1.4,4.23-6.8,10.36-10.13,10.22-33.1-1.31-67.1.39-99-6.84-48.74-11.06-83-43.58-102.71-89.78-4.52-10.55-9.13-16-21.38-13.3-30.8,6.81-59.41-1.79-87.06-14.37-9.46-4.29-17.29-5.46-27.62-.68-29.19,13.48-59.71,22.13-94.37,14.55-.41,31.16.75,61,16.4,87.5,10.6,17.91,29.08,23.69,49.7,23.55q70.33-.48,140.68,0c18.72.1,36.51,4,48.8,19.79,24.56,31.54,13.34,68.9-27.74,87.61H647.85c0-10.68.08-21.25,0-31.81-.27-32.56,2.19-64.45,18-94.06a176.47,176.47,0,0,1,53.29-60.59c5.68-4.1,11.16-11.4,12.51-18.08,6.75-33.57,20.48-63.35,45.69-86.67,11.54-10.68,24.47-20.69,38.42-27.75,24.23-12.26,48,5.54,48.25,35.14.34,46.89,0,93.79.18,140.68,0,6,.2,12.44,2.23,17.95,4.54,12.34,14.14,18.47,27.39,17.06,13.06-1.38,21.37-8.86,23.52-22,.89-5.5.61-11.22.59-16.84-.29-62.83,3.45-126-2.09-188.39-5.69-64-39.7-115.07-94.63-150.31-8.12-5.21-18.23-7.21-27.15-11.28-14.25-6.49-19.94-16.25-16.47-27,3.74-11.66,14.56-16.85,29.74-14.26,180.24,30.77,297.83,195.35,268,376.12C1052.33,733.12,974.66,831.27,845.5,888.64c-45.92,20.39-94.68,29.25-144.85,29.29-95.19.08-190.41,1.18-285.55-1-90-2.06-168.63-36-235.5-96-70.07-62.87-111.18-141.74-122.35-235C53,550.73,54.84,514.8,53.66,479.21c-.18-5.45-.2-11.8-2.87-16.14-20.53-33.38-25.47-70-23.51-108.11.43-8.25-2.14-13.24-8.34-18.95A62.38,62.38,0,0,1,2.83,312c-8.85-24.87,3.59-41.82,30-41.86,8.68,0,14.24-1.71,19.09-10,36.3-62.27,90.42-96,162.9-97.62,40.29-.91,80.72-1.42,120.93.86,66.61,3.79,116.53,36.57,150.82,93.53,4,6.59,6.21,13.45,17,13.44,32.91,0,45.59,22.75,29.78,51.59a6.69,6.69,0,0,1-1.5,2.36C503.69,343,515.12,372.26,512.12,394.93Zm-235.4,37.38c18.62,7.64,36.39,16,54.87,22.26,26.55,9,50.66,2.73,72-15.17,25.16-21.13,28.79-49.6,28.93-80.1.31-67.22-47.36-114.19-103.93-115.42-40.71-.88-81.54-1.47-122.17.72-41.35,2.23-71.17,25.09-88.13,62.28-14.47,31.71-15,65.75-5.13,98.82,10.39,34.69,52.06,60.32,84.91,51.81,21.66-5.62,42-16.12,64-24.85-11.5-5.72-21.53-9.72-30.49-15.39-14-8.83-20.27-28.55-14.54-45,5.27-15.14,18.72-14.85,31.61-14.83,14.54,0,29.07,0,43.6,0,27.28.08,38.92,15.48,29.52,41.22-2.79,7.66-9.66,14.86-16.47,19.75C297.14,424.26,287,427.46,276.72,432.31Z"/><path class="cls-1" d="M188.63,351c.14,14.07-11.41,26-25.64,26.45-14.9.48-27.37-11.07-27.7-25.66s11.76-27.43,26.21-27.65C175.61,323.91,188.49,336.66,188.63,351Z"/><path class="cls-1" d="M404.79,350.52c.41,13.72-11.37,26.31-25.18,26.91-15.1.65-27.65-10.62-28.11-25.23a26.94,26.94,0,0,1,25.72-27.89C391.24,323.54,404.36,336,404.79,350.52Z"/></svg>