<svg id="Layer_10" data-name="Layer 10" xmlns="http://www.w3.org/2000/svg" viewBox="0 0 1080 1080"><defs><style>.cls-1{fill:#023047;}</style></defs><path class="cls-1" d="M160.45,183.64c0,35.92-.17,70.55.26,105.16,0,3.38,3.11,7.42,5.87,9.95,24.08,22,25.13,50.59,3.36,74.31-3.53,3.85-5.83,11.55-4.68,16.55,8.54,37.38,18.12,74.53,27.29,111.77a97.34,97.34,0,0,1,2.86,15.16c1.19,14.35-6.75,23.13-21.27,23.25-25.3.22-50.61.14-75.92,0-17.64-.07-26.46-9.19-22.83-26.7,6.34-30.64,14.41-60.93,21.77-91.36,1.43-5.9,2.51-11.94,4.48-17.66,5-14.64,5.72-26.34-7.12-39.68-17-17.68-12.76-45.22,6.82-62.61,6.82-6.05,8.69-12,8.61-20.46-.33-36.08-.14-72.16-.14-109.08-7.1-2.49-14.13-4.65-20.92-7.41-13-5.28-20.22-15.55-20.76-29.17C67.58,121.92,74,110.18,87.36,106c24.43-7.73,49.33-14.12,74.26-20.16q169-40.95,338.11-81.4c33.77-8.15,66.81-4,100,4.1Q786.42,53.93,973.27,98.85a114.75,114.75,0,0,1,19.83,6.84c12.85,5.78,19.48,16.71,19.08,30.22s-7.69,24.83-21,28.77c-25.52,7.55-51.43,13.79-77.27,20.19-34,8.42-68.1,16.47-105.17,25.41,0,31.26.22,62.47-.06,93.68-.38,43.12-2.33,85.68-17.08,127.31-42.14,119-170.12,194.46-294.94,172.3-133.8-23.76-225.31-132.41-226.47-269.14q-.46-56.25.15-112.5c.12-9.12-2.45-13-11.72-15C226.21,199.82,194.06,191.7,160.45,183.64Z"/><path class="cls-1" d="M543,877.4c3.07-4.15,5.68-8.76,9.28-12.38Q650.5,766.44,748.84,668c6.08-6.12,11-7.85,19.43-4.57,140.07,54.71,221.86,155.71,241.5,305.29,2.63,20,2.5,41.55-2.25,60.94-7.37,30.17-30.56,45.79-61.14,49.76-6.47.84-13.1.58-19.65.58q-388,0-775.92,0c-55,0-84.86-31.12-82.91-86.19C73.14,845.67,171,712.36,309.33,664.08c10.45-3.65,16.44-1.48,23.92,6.08C397.87,735.42,463,800.21,527.8,865.27c3.59,3.61,6.05,8.34,9,12.55Z"/></svg>