<svg width="197" height="102" viewBox="0 0 197 102" fill="none" xmlns="http://www.w3.org/2000/svg">
<path d="M28.4186 18.1929C26.2244 13.9618 20.9285 7.64758 16.4289 13.7211C12.8552 18.5448 19.4287 26.72 21.6599 31.0437C23.2246 34.0897 24.7893 37.145 26.354 40.2003C26.9002 41.2742 29.5111 44.885 29.0482 46.2831L37.89 35.3673C34.8069 29.5901 31.4739 23.9702 28.4186 18.1929Z" fill="#FDD451"/>
<path d="M45.5931 15.7673C44.7968 12.5731 43.9636 9.39747 43.0563 6.24034C42.3156 3.68501 41.5101 1.57409 38.5567 1.08339C36.0661 0.666761 33.0849 1.82407 32.0572 4.26829C30.6314 7.65688 32.4553 10.8881 33.1775 14.1841C34.7329 21.2483 36.2606 28.3217 37.8715 35.3674L50.1019 34.7656C48.0095 28.7384 47.1392 21.9797 45.5931 15.7673Z" fill="#32A56E"/>
<path d="M29.039 46.2739C27.5021 45.8572 26.1133 44.524 24.7616 43.7278C22.8914 42.6353 20.9841 41.6076 19.0769 40.5799C16.9382 39.4319 14.7254 38.3394 12.6978 36.9969C10.985 35.8674 9.29071 34.4786 7.16126 34.2842C3.38382 33.9324 0.337798 37.969 1.12477 41.5335C1.93951 45.1814 7.11497 47.4312 9.96657 49.3477C13.6607 51.8197 17.29 54.4953 21.16 56.6896C21.7341 57.0136 22.234 57.3562 22.6877 57.7173L29.039 46.2739Z" fill="#268DC0"/>
<path d="M62.5175 35.3489C62.5268 33.8954 62.5916 32.4325 62.6379 31.0067C62.8508 24.6184 63.0638 18.2301 63.3601 11.851C63.5823 6.99034 61.9435 -0.731201 55.1108 2.14817C51.0463 3.86099 51.5648 10.0456 51.3333 13.6101C50.8704 20.6373 50.8797 27.7755 50.1205 34.7749L62.5175 35.3489Z" fill="#DA3432"/>
<path d="M87.1912 47.9033C90.4872 44.6721 96.5608 39.3948 91.0427 34.9971C85.7839 30.8122 80.2289 38.0709 76.8496 41.4502C74.7109 43.5889 72.6647 45.8109 70.7019 48.107C68.6188 50.5327 66.9338 50.7271 65.1469 47.783C62.0731 42.7093 62.4342 36.6821 62.6193 30.9974C62.8323 24.6091 63.0452 18.2208 63.3415 11.8417C63.5637 6.98102 61.9249 -0.740522 55.0922 2.13885C51.0278 3.85166 51.5462 10.0363 51.3148 13.6008C50.8519 20.628 50.8611 27.7662 50.1019 34.7656C48.0002 28.7384 47.1392 21.9704 45.5931 15.7673C44.7968 12.5731 43.9636 9.39747 43.0562 6.24034C42.3156 3.68501 41.5101 1.57409 38.5566 1.08339C36.0661 0.666761 33.0849 1.82407 32.0572 4.26829C30.6314 7.65688 32.4553 10.8881 33.1775 14.1841C34.7329 21.2483 36.2605 28.3217 37.8715 35.3674C34.807 29.5994 31.4647 23.9703 28.4094 18.193C26.2151 13.9619 20.9193 7.64763 16.4197 13.7212C12.8459 18.5448 19.4194 26.72 21.6507 31.0437C23.2154 34.0897 24.7801 37.145 26.3448 40.2003C26.891 41.2743 29.5019 44.8851 29.039 46.2831C27.5021 45.8665 26.1133 44.5333 24.7616 43.737C22.8914 42.6445 20.9841 41.6168 19.0769 40.5892C16.9382 39.4411 14.7254 38.3486 12.6978 37.0061C10.985 35.8766 9.29071 34.4878 7.16126 34.2934C3.38382 33.9416 0.337798 37.9783 1.12477 41.5428C1.93951 45.1906 7.11497 47.4404 9.96657 49.3569C13.6607 51.8289 17.29 54.5046 21.16 56.6988C25.1134 58.9394 25.8633 62.0873 27.8168 66.0128C29.8074 69.994 31.9554 73.9103 33.8904 77.9192C35.3347 80.9097 32.7331 85.7148 32.2887 88.7886C31.1406 96.6861 40.8435 97.1397 46.1948 98.6951C49.6482 99.695 54.6663 102.176 58.2216 100.343C60.8695 98.9729 61.675 94.427 62.536 91.918C63.8137 88.1961 65.4432 84.613 66.9708 80.993C68.6003 77.1322 69.8502 72.6697 72.1277 69.1514C74.4886 65.5036 77.7847 62.5317 80.0437 58.8098C82.4139 54.9027 83.8767 51.1623 87.1912 47.9033Z" stroke="#021F2E" stroke-width="2" stroke-linecap="round" stroke-linejoin="round"/>
<path d="M167.51 46.2739C167.047 44.8759 169.658 41.2651 170.204 40.1911C171.769 37.1358 173.324 34.0898 174.898 31.0345C177.12 26.7108 183.703 18.5449 180.129 13.712C175.629 7.63842 170.333 13.9527 168.139 18.1838C165.084 23.9611 161.742 29.5809 158.677 35.3582L167.51 46.2739Z" fill="#FDD451"/>
<path d="M163.362 14.1748C164.084 10.8881 165.908 7.6569 164.482 4.25906C163.464 1.82409 160.482 0.666784 157.992 1.08341C155.038 1.57411 154.233 3.68503 153.492 6.24036C152.585 9.39749 151.752 12.5824 150.956 15.7673C149.409 21.9705 148.548 28.7384 146.447 34.7656L158.677 35.3674C160.279 28.3125 161.816 21.239 163.362 14.1748Z" fill="#32A56E"/>
<path d="M186.573 49.3384C189.424 47.4312 194.6 45.1721 195.415 41.5243C196.202 37.969 193.165 33.9324 189.378 34.2749C187.249 34.4693 185.554 35.8581 183.842 36.9876C181.814 38.3301 179.601 39.4226 177.462 40.5707C175.555 41.5983 173.648 42.626 171.778 43.7185C170.426 44.5147 169.037 45.848 167.5 46.2646L173.842 57.6988C174.296 57.3377 174.796 56.9951 175.37 56.6711C179.249 54.4953 182.879 51.8197 186.573 49.3384Z" fill="#268DC0"/>
<path d="M145.234 13.6008C144.993 10.0363 145.521 3.85166 141.456 2.13885C134.614 -0.740521 132.985 6.99028 133.207 11.8417C133.503 18.2208 133.716 24.6183 133.929 30.9974C133.976 32.4325 134.031 33.886 134.05 35.3396L146.456 34.7563C145.687 27.7662 145.697 20.628 145.234 13.6008Z" fill="#DA3432"/>
<path d="M109.348 47.9033C106.052 44.6721 99.9786 39.3948 105.497 34.9971C110.755 30.8123 116.31 38.0801 119.69 41.4595C121.828 43.5982 123.875 45.8202 125.837 48.1163C127.921 50.542 129.606 50.7364 131.392 47.7922C134.466 42.7186 134.105 36.6914 133.92 31.0067C133.707 24.6184 133.494 18.23 133.198 11.851C132.976 6.99029 134.614 -0.731244 141.447 2.14813C145.512 3.86094 144.993 10.0456 145.225 13.6101C145.687 20.6372 145.678 27.7755 146.437 34.7749C148.539 28.7476 149.4 21.9797 150.946 15.7766C151.743 12.5824 152.576 9.40675 153.483 6.24962C154.224 3.69429 155.029 1.58337 157.983 1.09267C160.473 0.676039 163.454 1.83334 164.482 4.27757C165.908 7.66616 164.084 10.8974 163.362 14.1934C161.806 21.2575 160.279 28.331 158.668 35.3767C161.732 29.6087 165.075 23.9795 168.13 18.2023C170.324 13.9619 175.62 7.64764 180.12 13.7212C183.693 18.5448 177.12 26.72 174.889 31.0437C173.324 34.0897 171.759 37.145 170.195 40.2003C169.648 41.2743 167.037 44.8851 167.5 46.2831C169.037 45.8665 170.426 44.5333 171.778 43.737C173.648 42.6445 175.555 41.6169 177.462 40.5892C179.601 39.4411 181.814 38.3486 183.842 37.0062C185.554 35.8766 187.249 34.4879 189.378 34.2934C193.155 33.9416 196.202 37.9783 195.415 41.5428C194.6 45.1906 189.424 47.4404 186.573 49.3569C182.879 51.8289 179.249 54.5046 175.379 56.6988C171.426 58.9394 170.676 62.0873 168.722 66.0128C166.732 69.994 164.584 73.9103 162.649 77.9192C161.205 80.9097 163.806 85.7148 164.251 88.7886C165.399 96.686 155.696 97.1397 150.344 98.6951C146.891 99.695 141.873 102.176 138.318 100.343C135.67 98.9729 134.864 94.427 134.003 91.918C132.726 88.1961 131.096 84.613 129.569 80.993C127.939 77.1322 126.689 72.6697 124.412 69.1514C122.051 65.5036 118.755 62.5317 116.496 58.8098C114.135 54.9027 112.672 51.1623 109.348 47.9033Z" stroke="#021F2E" stroke-width="2" stroke-linecap="round" stroke-linejoin="round"/>
</svg>
