<svg width="95" height="102" viewBox="0 0 95 102" fill="none" xmlns="http://www.w3.org/2000/svg">
<path d="M67.7444 40.1947C69.3046 37.1396 70.8556 34.0938 72.4251 31.0387C74.6408 26.7152 81.2049 18.5498 77.6413 13.7172C73.1544 7.64401 67.8736 13.9579 65.6856 18.1887C62.6389 23.9657 59.3061 29.5852 56.2502 35.3621L65.067 46.2771C64.5962 44.8792 67.1997 41.2686 67.7444 40.1947Z" fill="#DA3432"/>
<path d="M60.9217 14.1801C61.6418 10.8935 63.4605 7.66254 62.0388 4.2649C61.014 1.83007 58.0412 0.672839 55.5578 1.08019C52.6127 1.57085 51.8095 3.68165 51.0709 6.23683C50.1661 9.39376 49.3352 12.5785 48.5413 15.7632C46.9995 21.966 46.1409 28.7335 44.0452 34.7604L56.2409 35.3621C57.8474 28.3169 59.3799 21.2439 60.9217 14.1801Z" fill="#DA3432"/>
<path d="M77.2073 54.026L70.7909 42.8888C70.3016 43.1665 69.8123 43.4535 69.323 43.7313C67.9751 44.5274 66.5903 45.8606 65.0577 46.2772L71.3818 57.7107C71.8342 57.3496 72.3327 57.0071 72.9051 56.683C74.3731 55.8591 75.7948 54.9611 77.2073 54.026Z" fill="#DA3432"/>
<path d="M76.9304 39.5559C76.2841 39.8984 75.6379 40.241 74.9916 40.5835C73.6252 41.3242 72.2589 42.0555 70.911 42.8147C70.874 42.8332 70.8371 42.861 70.8002 42.8795L77.2166 54.0167C77.2535 53.9889 77.2904 53.9704 77.3273 53.9427C79.2384 52.6743 81.1126 51.3597 82.9959 50.0729L76.9304 39.5559Z" fill="#32A56E"/>
<path d="M82.9129 35.9453C82.3867 36.2971 81.8697 36.6582 81.3527 37.0007C79.9678 37.9172 78.4999 38.7134 77.032 39.5003C76.995 39.5189 76.9673 39.5374 76.9304 39.5559L82.9868 50.0821C83.0145 50.0636 83.0514 50.0358 83.0791 50.0173C83.4114 49.7951 83.7346 49.5729 84.0669 49.3507C85.3964 48.462 87.2336 47.4899 88.8954 46.3419L82.9129 35.9453Z" fill="#FDD451"/>
<path d="M86.8735 34.2882C85.4332 34.4178 84.1869 35.1122 82.9959 35.8898C82.9682 35.9083 82.9405 35.9269 82.9128 35.9454L88.8953 46.3327C88.923 46.3142 88.9507 46.2957 88.9784 46.2772C90.8341 44.9811 92.459 43.4443 92.8836 41.5371C93.6776 37.9821 90.6402 33.9457 86.8735 34.2882Z" fill="#268DC0"/>
<path d="M39.0691 2.14489C33.0497 -0.401023 31.0739 5.3296 30.8431 10.0511H42.6973C42.5311 6.85716 41.968 3.36693 39.0691 2.14489Z" fill="#268DC0"/>
<path d="M42.845 13.6061C42.7803 12.5784 42.7711 11.3379 42.7065 10.051H30.8523C30.8246 10.6713 30.8246 11.2823 30.8523 11.8471C30.9539 14.0875 31.0462 16.3371 31.1385 18.5868H43.1219C43.0388 16.9204 42.9558 15.2632 42.845 13.6061Z" fill="#FDD451"/>
<path d="M31.1293 18.5868C31.2401 21.429 31.3416 24.2804 31.4339 27.1226H43.4728C43.325 24.2804 43.2327 21.429 43.1035 18.5868H31.1293Z" fill="#32A56E"/>
<path d="M43.4728 27.1226H31.434C31.4801 28.4187 31.5171 29.7148 31.5632 31.0109C31.6094 32.4458 31.6648 33.8993 31.6832 35.3528L44.0544 34.7696C43.7775 32.2329 43.602 29.6777 43.4728 27.1226Z" fill="#DA3432"/>
<path d="M7.06089 47.9065C3.77422 44.6755 -2.28213 39.3985 3.22028 35.001C8.46418 30.8164 14.0035 38.0746 17.3733 41.4537C19.5059 43.5923 21.5462 45.8142 23.5035 48.1101C25.5807 50.5357 27.261 50.7301 29.0428 47.7861C32.1079 42.7128 31.7478 36.6859 31.5632 31.0016C31.3509 24.6136 31.1385 18.2257 30.8431 11.847C30.6215 6.98664 32.2556 -0.734435 39.069 2.14477C43.122 3.85747 42.6049 10.0417 42.8357 13.606C43.2974 20.6328 43.2881 27.7706 44.0452 34.7695C46.1409 28.7427 46.9995 21.9751 48.5413 15.7724C49.3352 12.5784 50.1661 9.40294 51.0709 6.24601C51.8095 3.69083 52.6127 1.58004 55.5578 1.08937C58.0412 0.672763 61.014 1.83 62.0388 4.27408C63.4605 7.66246 61.6418 10.8935 60.9217 14.1893C59.3707 21.253 57.8474 28.3261 56.2409 35.3713C59.2968 29.6036 62.6296 23.9748 65.6763 18.1979C67.8643 13.9671 73.1451 7.6532 77.632 13.7264C81.1956 18.5497 74.6408 26.7244 72.4158 31.0479C70.8556 34.0937 69.2953 37.1488 67.7351 40.2039C67.1904 41.2778 64.5869 44.8884 65.0485 46.2863C66.581 45.8697 67.9659 44.5366 69.3138 43.7404C71.1787 42.648 73.0805 41.6204 74.9824 40.5927C77.115 39.4448 79.3215 38.3523 81.3434 37.0099C83.0513 35.8805 84.7408 34.4918 86.8642 34.2974C90.631 33.9456 93.6684 37.982 92.8836 41.5463C92.0712 45.1939 86.9104 47.4436 84.0669 49.36C80.3832 51.8318 76.7642 54.5073 72.9051 56.7015C68.963 58.9419 68.2151 62.0895 66.2671 66.0149C64.2822 69.9958 62.1403 73.9119 60.2108 77.9205C58.7706 80.9108 61.3648 85.7157 61.808 88.7893C62.9528 96.6862 53.2774 97.1399 47.9412 98.6952C44.4976 99.695 39.4937 102.176 35.9485 100.343C33.3081 98.9729 32.5049 94.4273 31.6463 91.9184C30.3723 88.1968 28.7474 84.614 27.2241 80.9941C25.5992 77.1336 24.3528 72.6713 22.0817 69.1533C19.7275 65.5057 16.4408 62.5339 14.1882 58.8123C11.8339 54.9054 10.3753 51.1652 7.06089 47.9065Z" stroke="#021F2E" stroke-width="2" stroke-linecap="round" stroke-linejoin="round"/>
</svg>
