<svg width="95" height="102" viewBox="0 0 95 102" fill="none" xmlns="http://www.w3.org/2000/svg">
<path d="M28.3427 18.1929C26.1545 13.9618 20.8734 7.64758 16.3862 13.7211C12.8224 18.5448 19.3777 26.72 21.6028 31.0437C23.1631 34.0897 24.7234 37.145 26.2838 40.2003C26.8285 41.2742 29.4321 44.885 28.9705 46.2831L37.7878 35.3673C34.7133 29.5901 31.3895 23.9702 28.3427 18.1929Z" fill="#DA3432"/>
<path d="M45.4694 15.7673C44.6754 12.5731 43.8444 9.39747 42.9396 6.24034C42.201 3.68501 41.3977 1.57409 38.4525 1.08339C35.9689 0.666761 32.9959 1.82407 31.971 4.26829C30.5492 7.65688 32.3681 10.8881 33.0882 14.1841C34.6393 21.2483 36.1627 28.3217 37.7692 35.3674L49.9658 34.7656C47.8791 28.7384 47.0113 21.9797 45.4694 15.7673Z" fill="#DA3432"/>
<path d="M24.6865 43.7278C24.1972 43.4408 23.7079 43.163 23.2185 42.8853L16.8018 54.0232C18.2144 54.9583 19.6362 55.8563 21.1042 56.6896C21.6767 57.0136 22.1752 57.3562 22.6276 57.7173L28.9521 46.2831C27.4287 45.8572 26.0438 44.524 24.6865 43.7278Z" fill="#268DC0"/>
<path d="M23.1077 42.8205C21.7597 42.0613 20.3933 41.3206 19.0268 40.5892C18.3898 40.2466 17.7342 39.9041 17.0879 39.5615L11.0312 50.0884C12.9147 51.3753 14.789 52.6993 16.7002 53.9584C16.7371 53.9862 16.774 54.0047 16.811 54.0325L23.2277 42.8946C23.1816 42.8668 23.1446 42.839 23.1077 42.8205Z" fill="#FDD451"/>
<path d="M16.9864 39.4966C15.5092 38.7189 14.0412 37.9135 12.6655 36.9969C12.1485 36.6543 11.6314 36.284 11.1051 35.9414L5.12231 46.3294C6.78422 47.4774 8.62152 48.4496 9.95104 49.3384C10.2834 49.5606 10.6066 49.7828 10.939 50.005C10.9667 50.0235 11.0036 50.0513 11.0313 50.0698L17.088 39.5429C17.0603 39.5337 17.0234 39.5152 16.9864 39.4966Z" fill="#32A56E"/>
<path d="M11.022 35.8859C9.84016 35.1082 8.59374 34.4138 7.14419 34.2842C3.37721 33.9324 0.339633 37.969 1.12442 41.5335C1.54913 43.45 3.1741 44.9777 5.02989 46.2739C5.05759 46.2924 5.08528 46.3109 5.11298 46.3294L11.0958 35.9414C11.0774 35.9229 11.0497 35.9044 11.022 35.8859Z" fill="#DA3432"/>
<path d="M54.9422 2.13883C52.0523 3.36094 51.4891 6.85138 51.3137 10.0455H63.1686C62.947 5.32373 60.9712 -0.407243 54.9422 2.13883Z" fill="#DA3432"/>
<path d="M63.1779 11.8417C63.2056 11.2769 63.2056 10.6658 63.1779 10.0455H51.323C51.2584 11.3325 51.2491 12.5731 51.1845 13.6008C51.0737 15.258 50.9906 16.9153 50.9167 18.5818H62.9009C62.984 16.332 63.0763 14.0915 63.1779 11.8417Z" fill="#32A56E"/>
<path d="M50.9076 18.5818C50.7876 21.4241 50.6861 24.2757 50.5383 27.1181H62.5779C62.6702 24.2757 62.7718 21.4241 62.8826 18.5818H50.9076Z" fill="#FDD451"/>
<path d="M62.4578 31.0067C62.504 29.7105 62.5409 28.4143 62.5871 27.1182H50.5475C50.4183 29.6828 50.2428 32.2381 49.9751 34.7749L62.347 35.3582C62.3563 33.8953 62.4117 32.4325 62.4578 31.0067Z" fill="#268DC0"/>
<path d="M86.9524 47.9033C90.2392 44.6721 96.2959 39.3948 90.7932 34.9971C85.549 30.8122 80.0093 38.0709 76.6393 41.4502C74.5066 43.5889 72.4661 45.8109 70.5088 48.107C68.4314 50.5327 66.751 50.7271 64.9691 47.783C61.9038 42.7093 62.2639 36.6821 62.4486 30.9974C62.6609 24.6091 62.8733 18.2208 63.1687 11.8417C63.3903 6.98102 61.7561 -0.740522 54.9423 2.13885C50.8891 3.85166 51.4061 10.0363 51.1753 13.6008C50.7137 20.628 50.7229 27.7662 49.9658 34.7656C47.87 28.7384 47.0114 21.9704 45.4695 15.7673C44.6755 12.5731 43.8445 9.39747 42.9397 6.24034C42.2011 3.68501 41.3978 1.57409 38.4526 1.08339C35.9689 0.666761 32.996 1.82407 31.9711 4.26829C30.5493 7.65688 32.3682 10.8881 33.0883 14.1841C34.6394 21.2483 36.1628 28.3217 37.7693 35.3674C34.7133 29.5994 31.3802 23.9703 28.3334 18.193C26.1453 13.9619 20.8641 7.64763 16.377 13.7212C12.8131 18.5448 19.3684 26.72 21.5935 31.0437C23.1538 34.0897 24.7142 37.145 26.2745 40.2003C26.8192 41.2743 29.4229 44.8851 28.9613 46.2831C27.4286 45.8665 26.0437 44.5333 24.6957 43.737C22.8307 42.6445 20.9287 41.6168 19.0268 40.5892C16.894 39.4411 14.6874 38.3486 12.6654 37.0061C10.9573 35.8766 9.26773 34.4878 7.14419 34.2934C3.37721 33.9416 0.339633 37.9783 1.12442 41.5428C1.9369 45.1906 7.09803 47.4404 9.94173 49.3569C13.6256 51.8289 17.2448 54.5046 21.1042 56.6988C25.0466 58.9394 25.7944 62.0873 27.7425 66.0128C29.7276 69.994 31.8696 73.9103 33.7992 77.9192C35.2395 80.9097 32.6451 85.7148 32.202 88.7886C31.0571 96.6861 40.7331 97.1397 46.0696 98.6951C49.5134 99.695 54.5176 102.176 58.063 100.343C60.7036 98.9729 61.5068 94.427 62.3655 91.918C63.6396 88.1961 65.2646 84.613 66.788 80.993C68.4129 77.1322 69.6594 72.6697 71.9306 69.1514C74.285 65.5036 77.5719 62.5317 79.8247 58.8098C82.1882 54.9027 83.647 51.1623 86.9524 47.9033Z" stroke="#021F2E" stroke-width="2" stroke-linecap="round" stroke-linejoin="round"/>
</svg>
