<svg width="221" height="77" viewBox="0 0 221 77" fill="none" xmlns="http://www.w3.org/2000/svg">
<path fill-rule="evenodd" clip-rule="evenodd" d="M8.91477 67.2H25.8528C32.6839 67.1415 39.2577 64.6004 44.3355 60.0553C49.4133 55.5103 52.6445 49.2752 53.4203 42.5249C53.6982 38.7172 53.1487 34.8947 51.8092 31.3169C50.4697 27.7392 48.3715 24.4902 45.6572 21.7907C42.943 19.0912 39.6762 17.0044 36.079 15.6721C32.4817 14.3399 28.6383 13.7934 24.8098 14.0698C18.0254 14.8404 11.7584 18.0513 7.1888 23.098C2.61924 28.1446 0.0624841 34.6787 0 41.4698V56.3653C0 63.8485 4.47819 67.2 8.91477 67.2ZM39.502 32.3312V26.8625H13.6585V32.3312C14.4503 32.1417 15.2715 32.025 16.1219 31.9813C16.987 31.9229 17.8595 31.8937 18.7393 31.8937H23.4021V49.7656C23.4021 51.8073 23.3727 53.6156 23.3141 55.1906C23.2701 56.7656 23.1528 57.9688 22.9622 58.8H30.1104C29.9198 57.9688 29.7951 56.7656 29.7365 55.1906C29.6925 53.6156 29.6705 51.8073 29.6705 49.7656V31.8937H34.4213C35.3157 31.8937 36.1882 31.9229 37.0386 31.9813C37.8891 32.025 38.7102 32.1417 39.502 32.3312Z" fill="#023047"/>
<path d="M71.4215 58C70.5934 60.2656 69.7653 62.1094 68.9371 63.5312C68.1246 64.9688 67.2809 66.0938 66.4059 66.9062C65.5309 67.7188 64.6168 68.2734 63.6637 68.5703C62.7106 68.8672 61.7028 69.0156 60.6403 69.0156C59.5621 69.0156 58.5074 68.8438 57.4762 68.5C56.4606 68.1562 55.5231 67.6641 54.6637 67.0234L56.3043 61.9141C56.5543 62.1172 56.8434 62.3203 57.1715 62.5234C57.5153 62.7422 57.8746 62.9297 58.2496 63.0859C58.6403 63.2578 59.0387 63.3984 59.4449 63.5078C59.8512 63.6172 60.2496 63.6719 60.6403 63.6719C60.984 63.6719 61.3356 63.6094 61.6949 63.4844C62.0543 63.3594 62.4215 63.1094 62.7965 62.7344C63.1871 62.3594 63.5856 61.8281 63.9918 61.1406C64.4137 60.4531 64.859 59.5469 65.3278 58.4219L59.1168 42.4141C58.6949 41.3359 58.1871 40.1406 57.5934 38.8281C57.0153 37.5 56.2731 35.9219 55.3668 34.0938H62.7028L68.3278 51.1328C68.5309 50.3828 68.7574 49.5703 69.0074 48.6953C69.2574 47.8047 69.5153 46.8906 69.7809 45.9531C70.0465 45.0156 70.3121 44.0703 70.5778 43.1172C70.8434 42.1641 71.1012 41.25 71.3512 40.375C71.9293 38.3125 72.5153 36.2188 73.109 34.0938H80.4449C80.0387 35 79.6715 35.8438 79.3434 36.625C79.0153 37.3906 78.7106 38.1172 78.4293 38.8047C78.1481 39.4766 77.8903 40.1094 77.6559 40.7031C77.4371 41.2969 77.234 41.8672 77.0465 42.4141L71.4215 58ZM95.5153 53.1719C96.234 53.1719 96.9215 53.0156 97.5778 52.7031C98.234 52.375 98.8121 51.9062 99.3121 51.2969C99.8121 50.6875 100.211 49.9531 100.507 49.0938C100.804 48.2188 100.953 47.2422 100.953 46.1641C100.953 45.1016 100.851 44.1406 100.648 43.2812C100.445 42.4219 100.148 41.6953 99.7574 41.1016C99.3668 40.4922 98.8903 40.0234 98.3278 39.6953C97.7653 39.3672 97.1324 39.2031 96.4293 39.2031C95.9137 39.2031 95.3824 39.3125 94.8356 39.5312C94.2887 39.75 93.7574 40.0781 93.2418 40.5156C92.7418 40.9375 92.2653 41.4688 91.8121 42.1094C91.359 42.7344 90.9684 43.4609 90.6403 44.2891V50.9688C91.234 51.4062 91.7418 51.7734 92.1637 52.0703C92.6012 52.3516 92.9996 52.5781 93.359 52.75C93.7184 52.9062 94.0621 53.0156 94.3903 53.0781C94.734 53.1406 95.109 53.1719 95.5153 53.1719ZM84.0778 69.4844V46.6328C84.0778 45.1797 84.0621 43.8359 84.0309 42.6016C84.0153 41.3516 83.9684 40.2109 83.8903 39.1797C83.8121 38.1328 83.6949 37.1875 83.5387 36.3438C83.3824 35.5 83.1715 34.75 82.9059 34.0938H89.3512C89.5231 34.4531 89.6949 34.9688 89.8668 35.6406C90.0387 36.2969 90.1793 37.1094 90.2887 38.0781C90.8199 37.4219 91.4059 36.8203 92.0465 36.2734C92.6871 35.7266 93.359 35.2578 94.0621 34.8672C94.7809 34.4766 95.5387 34.1719 96.3356 33.9531C97.1324 33.7344 97.9528 33.625 98.7965 33.625C100.109 33.625 101.297 33.9219 102.359 34.5156C103.437 35.0938 104.351 35.9141 105.101 36.9766C105.867 38.0234 106.461 39.2734 106.882 40.7266C107.304 42.1641 107.515 43.7422 107.515 45.4609C107.515 47.4609 107.242 49.2734 106.695 50.8984C106.148 52.5078 105.398 53.8828 104.445 55.0234C103.507 56.1641 102.398 57.0469 101.117 57.6719C99.8512 58.2812 98.4996 58.5859 97.0621 58.5859C96.4528 58.5859 95.8746 58.5312 95.3278 58.4219C94.7809 58.3281 94.2496 58.1875 93.734 58C93.234 57.8281 92.7262 57.6172 92.2106 57.3672C91.7106 57.1016 91.1871 56.8047 90.6403 56.4766V61.5156C90.6403 62.4531 90.6481 63.2969 90.6637 64.0469C90.6949 64.8125 90.734 65.5156 90.7809 66.1562C90.8278 66.7969 90.8903 67.3828 90.9684 67.9141C91.0465 68.4609 91.1324 68.9844 91.2262 69.4844H84.0778ZM130.859 34.0938L135.195 51.3203L138.875 34.0938H145.625C145.343 34.9844 145.093 35.7891 144.875 36.5078C144.672 37.2109 144.476 37.8906 144.289 38.5469C144.101 39.1875 143.914 39.8203 143.726 40.4453C143.554 41.0547 143.367 41.7109 143.164 42.4141L138.828 58H132.031L128.047 41.7109L124.062 58H117.265L112.929 42.4141C112.757 41.7891 112.578 41.1719 112.39 40.5625C112.218 39.9531 112.031 39.3203 111.828 38.6641C111.64 38.0078 111.437 37.3047 111.218 36.5547C111 35.8047 110.75 34.9844 110.468 34.0938H117.218L120.898 51.3203L125.234 34.0938H130.859ZM149.843 25.5391C149.843 24.9453 149.945 24.3984 150.148 23.8984C150.351 23.3984 150.632 22.9688 150.992 22.6094C151.367 22.2344 151.804 21.9453 152.304 21.7422C152.804 21.5391 153.351 21.4375 153.945 21.4375C154.539 21.4375 155.086 21.5391 155.586 21.7422C156.086 21.9453 156.515 22.2344 156.875 22.6094C157.25 22.9688 157.539 23.3984 157.742 23.8984C157.945 24.3984 158.047 24.9453 158.047 25.5391C158.047 26.1484 157.945 26.7031 157.742 27.2031C157.539 27.7031 157.25 28.1406 156.875 28.5156C156.515 28.875 156.086 29.1562 155.586 29.3594C155.086 29.5469 154.539 29.6406 153.945 29.6406C153.351 29.6406 152.804 29.5469 152.304 29.3594C151.804 29.1562 151.367 28.875 150.992 28.5156C150.632 28.1406 150.351 27.7031 150.148 27.2031C149.945 26.7031 149.843 26.1484 149.843 25.5391ZM157.226 34.0938V46.8672C157.226 47.6172 157.234 48.5078 157.25 49.5391C157.281 50.5547 157.312 51.5859 157.343 52.6328C157.39 53.6797 157.437 54.6797 157.484 55.6328C157.547 56.5859 157.617 57.375 157.695 58H150.664V45.5781C150.664 44.4375 150.656 43.3125 150.64 42.2031C150.64 41.0938 150.625 40.0469 150.593 39.0625C150.578 38.0625 150.547 37.1406 150.5 36.2969C150.453 35.4375 150.39 34.7031 150.312 34.0938H157.226ZM181.132 58V45.1094C181.132 44.0312 181.062 43.125 180.922 42.3906C180.781 41.6562 180.562 41.0703 180.265 40.6328C179.968 40.1797 179.586 39.8594 179.117 39.6719C178.664 39.4688 178.125 39.3672 177.5 39.3672C176.828 39.3672 176.172 39.5156 175.531 39.8125C174.89 40.1094 174.297 40.5 173.75 40.9844C173.203 41.4688 172.726 42.0078 172.32 42.6016C171.914 43.1953 171.609 43.7969 171.406 44.4062V58H164.843V43.5859C164.843 41.2734 164.711 39.3203 164.445 37.7266C164.195 36.1172 163.937 34.9062 163.672 34.0938H170.117C170.211 34.3281 170.304 34.6406 170.398 35.0312C170.492 35.4062 170.578 35.8047 170.656 36.2266C170.734 36.6328 170.804 37.0391 170.867 37.4453L171.054 38.4297C171.804 37.5859 172.539 36.8594 173.257 36.25C173.976 35.6406 174.703 35.1406 175.437 34.75C176.172 34.3594 176.922 34.0781 177.687 33.9062C178.453 33.7188 179.25 33.625 180.078 33.625C181.265 33.625 182.328 33.8281 183.265 34.2344C184.218 34.6406 185.023 35.25 185.679 36.0625C186.336 36.875 186.836 37.8906 187.179 39.1094C187.523 40.3281 187.695 41.7422 187.695 43.3516V58H181.132ZM210.218 40.7031C209.672 40.4375 209.164 40.2188 208.695 40.0469C208.242 39.8594 207.789 39.7109 207.336 39.6016C206.898 39.4766 206.445 39.3906 205.976 39.3438C205.523 39.2812 205.023 39.25 204.476 39.25C203.867 39.25 203.265 39.4141 202.672 39.7422C202.078 40.0703 201.547 40.5469 201.078 41.1719C200.625 41.7969 200.257 42.5625 199.976 43.4688C199.695 44.3594 199.554 45.375 199.554 46.5156C199.554 48.75 199.922 50.4453 200.656 51.6016C201.39 52.7422 202.507 53.3125 204.007 53.3125C204.632 53.3125 205.25 53.1797 205.859 52.9141C206.484 52.6484 207.07 52.2969 207.617 51.8594C208.164 51.4062 208.664 50.9062 209.117 50.3594C209.57 49.7969 209.937 49.2188 210.218 48.625V40.7031ZM216.781 45.5781C216.781 48.5312 216.945 51.0156 217.273 53.0312C217.617 55.0312 218.039 56.6875 218.539 58H212.093C212 57.8125 211.898 57.5703 211.789 57.2734C211.695 56.9766 211.586 56.6484 211.461 56.2891C211.351 55.9297 211.234 55.5469 211.109 55.1406C211 54.7188 210.898 54.3047 210.804 53.8984C209.742 55.4141 208.539 56.5781 207.195 57.3906C205.851 58.1875 204.359 58.5859 202.718 58.5859C201.265 58.5859 199.945 58.3203 198.757 57.7891C197.57 57.2422 196.547 56.4766 195.687 55.4922C194.828 54.4922 194.164 53.2969 193.695 51.9062C193.226 50.5 192.992 48.9375 192.992 47.2188C192.992 45.1406 193.289 43.2656 193.882 41.5938C194.492 39.9219 195.312 38.5 196.343 37.3281C197.39 36.1406 198.609 35.2266 200 34.5859C201.39 33.9453 202.882 33.625 204.476 33.625C204.945 33.625 205.422 33.6797 205.906 33.7891C206.406 33.8984 206.906 34.0469 207.406 34.2344C207.906 34.4219 208.39 34.6406 208.859 34.8906C209.343 35.125 209.797 35.3672 210.218 35.6172V29.0547C210.218 27.1641 210.172 25.5156 210.078 24.1094C210 22.6875 209.851 21.4844 209.632 20.5H216.781V45.5781Z" fill="#023047"/>
</svg>
