<svg width="149" height="38" viewBox="0 0 149 38" fill="none" xmlns="http://www.w3.org/2000/svg">
<path fill-rule="evenodd" clip-rule="evenodd" d="M7.08312 38H19.116C23.9689 37.9582 28.6389 36.1431 32.2462 32.8967C35.8535 29.6502 38.149 25.1966 38.7001 20.3749C38.8976 17.6552 38.5072 14.9248 37.5556 12.3692C36.604 9.81373 35.1135 7.49302 33.1852 5.56478C31.257 3.63655 28.9363 2.14598 26.3808 1.19438C23.8253 0.242776 21.0948 -0.147571 18.3751 0.0498655C13.5554 0.600281 9.10322 2.89381 5.85697 6.49854C2.61073 10.1033 0.794389 14.7705 0.75 19.6213V30.2609C0.75 35.6061 3.93133 38 7.08312 38ZM28.8125 13.0937V9.1875H10.4531V13.0937C11.0156 12.9583 11.599 12.875 12.2031 12.8437C12.8177 12.8021 13.4375 12.7812 14.0625 12.7812H17.375V25.5469C17.375 27.0052 17.3542 28.2969 17.3125 29.4219C17.2812 30.5469 17.1979 31.4062 17.0625 32H22.1406C22.0052 31.4062 21.9167 30.5469 21.875 29.4219C21.8438 28.2969 21.8281 27.0052 21.8281 25.5469V12.7812H25.2031C25.8385 12.7812 26.4583 12.8021 27.0625 12.8437C27.6667 12.875 28.25 12.9583 28.8125 13.0937Z" fill="#FFF7F3"/>
<path d="M50.9219 30.3438C50.3698 31.8542 49.8177 33.0833 49.2656 34.0312C48.724 34.9896 48.1615 35.7396 47.5781 36.2812C46.9948 36.8229 46.3854 37.1927 45.75 37.3906C45.1146 37.5885 44.4427 37.6875 43.7344 37.6875C43.0156 37.6875 42.3125 37.5729 41.625 37.3438C40.9479 37.1146 40.3229 36.7865 39.75 36.3594L40.8438 32.9531C41.0104 33.0885 41.2031 33.224 41.4219 33.3594C41.651 33.5052 41.8906 33.6302 42.1406 33.7344C42.401 33.849 42.6667 33.9427 42.9375 34.0156C43.2083 34.0885 43.474 34.125 43.7344 34.125C43.9635 34.125 44.1979 34.0833 44.4375 34C44.6771 33.9167 44.9219 33.75 45.1719 33.5C45.4323 33.25 45.6979 32.8958 45.9688 32.4375C46.25 31.9792 46.5469 31.375 46.8594 30.625L42.7188 19.9531C42.4375 19.2344 42.099 18.4375 41.7031 17.5625C41.3177 16.6771 40.8229 15.625 40.2188 14.4062H45.1094L48.8594 25.7656C48.9948 25.2656 49.1458 24.724 49.3125 24.1406C49.4792 23.5469 49.651 22.9375 49.8281 22.3125C50.0052 21.6875 50.1823 21.0573 50.3594 20.4219C50.5365 19.7865 50.7083 19.1771 50.875 18.5938C51.2604 17.2188 51.651 15.8229 52.0469 14.4062H56.9375C56.6667 15.0104 56.4219 15.5729 56.2031 16.0938C55.9844 16.6042 55.7812 17.0885 55.5938 17.5469C55.4062 17.9948 55.2344 18.4167 55.0781 18.8125C54.9323 19.2083 54.7969 19.5885 54.6719 19.9531L50.9219 30.3438Z" fill="#FFF7F3"/>
<path d="M66.9844 27.125C67.4635 27.125 67.9219 27.0208 68.3594 26.8125C68.7969 26.5938 69.1823 26.2812 69.5156 25.875C69.849 25.4688 70.1146 24.9792 70.3125 24.4062C70.5104 23.8229 70.6094 23.1719 70.6094 22.4531C70.6094 21.7448 70.5417 21.1042 70.4062 20.5312C70.2708 19.9583 70.0729 19.474 69.8125 19.0781C69.5521 18.6719 69.2344 18.3594 68.8594 18.1406C68.4844 17.9219 68.0625 17.8125 67.5938 17.8125C67.25 17.8125 66.8958 17.8854 66.5312 18.0312C66.1667 18.1771 65.8125 18.3958 65.4688 18.6875C65.1354 18.9688 64.8177 19.3229 64.5156 19.75C64.2135 20.1667 63.9531 20.651 63.7344 21.2031V25.6562C64.1302 25.9479 64.4688 26.1927 64.75 26.3906C65.0417 26.5781 65.3073 26.7292 65.5469 26.8438C65.7865 26.9479 66.0156 27.0208 66.2344 27.0625C66.4635 27.1042 66.7135 27.125 66.9844 27.125ZM59.3594 38V22.7656C59.3594 21.7969 59.349 20.901 59.3281 20.0781C59.3177 19.2448 59.2865 18.4844 59.2344 17.7969C59.1823 17.099 59.1042 16.4688 59 15.9062C58.8958 15.3438 58.7552 14.8438 58.5781 14.4062H62.875C62.9896 14.6458 63.1042 14.9896 63.2188 15.4375C63.3333 15.875 63.4271 16.4167 63.5 17.0625C63.8542 16.625 64.2448 16.224 64.6719 15.8594C65.099 15.4948 65.5469 15.1823 66.0156 14.9219C66.4948 14.6615 67 14.4583 67.5312 14.3125C68.0625 14.1667 68.6094 14.0938 69.1719 14.0938C70.0469 14.0938 70.8385 14.2917 71.5469 14.6875C72.2656 15.0729 72.875 15.6198 73.375 16.3281C73.8854 17.026 74.2812 17.8594 74.5625 18.8281C74.8438 19.7865 74.9844 20.8385 74.9844 21.9844C74.9844 23.3177 74.8021 24.526 74.4375 25.6094C74.0729 26.6823 73.5729 27.599 72.9375 28.3594C72.3125 29.1198 71.5729 29.7083 70.7188 30.125C69.875 30.5312 68.974 30.7344 68.0156 30.7344C67.6094 30.7344 67.224 30.6979 66.8594 30.625C66.4948 30.5625 66.1406 30.4688 65.7969 30.3438C65.4635 30.2292 65.125 30.0885 64.7812 29.9219C64.4479 29.7448 64.099 29.5469 63.7344 29.3281V32.6875C63.7344 33.3125 63.7396 33.875 63.75 34.375C63.7708 34.8854 63.7969 35.3542 63.8281 35.7812C63.8594 36.2083 63.901 36.599 63.9531 36.9531C64.0052 37.3177 64.0625 37.6667 64.125 38H59.3594Z" fill="#FFF7F3"/>
<path d="M90.5469 14.4062L93.4375 25.8906L95.8906 14.4062H100.391C100.203 15 100.036 15.5365 99.8906 16.0156C99.7552 16.4844 99.625 16.9375 99.5 17.375C99.375 17.8021 99.25 18.224 99.125 18.6406C99.0104 19.0469 98.8854 19.4844 98.75 19.9531L95.8594 30.3438H91.3281L88.6719 19.4844L86.0156 30.3438H81.4844L78.5938 19.9531C78.4792 19.5365 78.3594 19.125 78.2344 18.7188C78.1198 18.3125 77.9948 17.8906 77.8594 17.4531C77.7344 17.0156 77.599 16.5469 77.4531 16.0469C77.3073 15.5469 77.1406 15 76.9531 14.4062H81.4531L83.9062 25.8906L86.7969 14.4062H90.5469Z" fill="#FFF7F3"/>
<path d="M103.203 8.70312C103.203 8.30729 103.271 7.94271 103.406 7.60938C103.542 7.27604 103.729 6.98958 103.969 6.75C104.219 6.5 104.51 6.30729 104.844 6.17188C105.177 6.03646 105.542 5.96875 105.938 5.96875C106.333 5.96875 106.698 6.03646 107.031 6.17188C107.365 6.30729 107.651 6.5 107.891 6.75C108.141 6.98958 108.333 7.27604 108.469 7.60938C108.604 7.94271 108.672 8.30729 108.672 8.70312C108.672 9.10938 108.604 9.47917 108.469 9.8125C108.333 10.1458 108.141 10.4375 107.891 10.6875C107.651 10.9271 107.365 11.1146 107.031 11.25C106.698 11.375 106.333 11.4375 105.938 11.4375C105.542 11.4375 105.177 11.375 104.844 11.25C104.51 11.1146 104.219 10.9271 103.969 10.6875C103.729 10.4375 103.542 10.1458 103.406 9.8125C103.271 9.47917 103.203 9.10938 103.203 8.70312ZM108.125 14.4062V22.9219C108.125 23.4219 108.13 24.0156 108.141 24.7031C108.161 25.3802 108.182 26.0677 108.203 26.7656C108.234 27.4635 108.266 28.1302 108.297 28.7656C108.339 29.401 108.385 29.9271 108.438 30.3438H103.75V22.0625C103.75 21.3021 103.745 20.5521 103.734 19.8125C103.734 19.0729 103.724 18.375 103.703 17.7188C103.693 17.0521 103.672 16.4375 103.641 15.875C103.609 15.3021 103.568 14.8125 103.516 14.4062H108.125Z" fill="#FFF7F3"/>
<path d="M124.062 30.3438V21.75C124.062 21.0312 124.016 20.4271 123.922 19.9375C123.828 19.4479 123.682 19.0573 123.484 18.7656C123.286 18.4635 123.031 18.25 122.719 18.125C122.417 17.9896 122.057 17.9219 121.641 17.9219C121.193 17.9219 120.755 18.0208 120.328 18.2188C119.901 18.4167 119.505 18.6771 119.141 19C118.776 19.3229 118.458 19.6823 118.188 20.0781C117.917 20.474 117.714 20.875 117.578 21.2812V30.3438H113.203V20.7344C113.203 19.1927 113.115 17.8906 112.938 16.8281C112.771 15.7552 112.599 14.9479 112.422 14.4062H116.719C116.781 14.5625 116.844 14.7708 116.906 15.0312C116.969 15.2812 117.026 15.5469 117.078 15.8281C117.13 16.099 117.177 16.3698 117.219 16.6406L117.344 17.2969C117.844 16.7344 118.333 16.25 118.812 15.8438C119.292 15.4375 119.776 15.1042 120.266 14.8438C120.755 14.5833 121.255 14.3958 121.766 14.2812C122.276 14.1562 122.807 14.0938 123.359 14.0938C124.151 14.0938 124.859 14.2292 125.484 14.5C126.12 14.7708 126.656 15.1771 127.094 15.7188C127.531 16.2604 127.865 16.9375 128.094 17.75C128.323 18.5625 128.438 19.5052 128.438 20.5781V30.3438H124.062Z" fill="#FFF7F3"/>
<path d="M143.453 18.8125C143.089 18.6354 142.75 18.4896 142.438 18.375C142.135 18.25 141.833 18.151 141.531 18.0781C141.24 17.9948 140.938 17.9375 140.625 17.9062C140.323 17.8646 139.99 17.8438 139.625 17.8438C139.219 17.8438 138.818 17.9531 138.422 18.1719C138.026 18.3906 137.672 18.7083 137.359 19.125C137.057 19.5417 136.812 20.0521 136.625 20.6562C136.438 21.25 136.344 21.9271 136.344 22.6875C136.344 24.1771 136.589 25.3073 137.078 26.0781C137.568 26.8385 138.312 27.2188 139.312 27.2188C139.729 27.2188 140.141 27.1302 140.547 26.9531C140.964 26.776 141.354 26.5417 141.719 26.25C142.083 25.9479 142.417 25.6146 142.719 25.25C143.021 24.875 143.266 24.4896 143.453 24.0938V18.8125ZM147.828 22.0625C147.828 24.0312 147.938 25.6875 148.156 27.0312C148.385 28.3646 148.667 29.4688 149 30.3438H144.703C144.641 30.2188 144.573 30.0573 144.5 29.8594C144.438 29.6615 144.365 29.4427 144.281 29.2031C144.208 28.9635 144.13 28.7083 144.047 28.4375C143.974 28.1562 143.906 27.8802 143.844 27.6094C143.135 28.6198 142.333 29.3958 141.438 29.9375C140.542 30.4688 139.547 30.7344 138.453 30.7344C137.484 30.7344 136.604 30.5573 135.812 30.2031C135.021 29.8385 134.339 29.3281 133.766 28.6719C133.193 28.0052 132.75 27.2083 132.438 26.2812C132.125 25.3438 131.969 24.3021 131.969 23.1562C131.969 21.7708 132.167 20.5208 132.562 19.4062C132.969 18.2917 133.516 17.3438 134.203 16.5625C134.901 15.7708 135.714 15.1615 136.641 14.7344C137.568 14.3073 138.562 14.0938 139.625 14.0938C139.938 14.0938 140.255 14.1302 140.578 14.2031C140.911 14.276 141.245 14.375 141.578 14.5C141.911 14.625 142.234 14.7708 142.547 14.9375C142.87 15.0938 143.172 15.2552 143.453 15.4219V11.0469C143.453 9.78646 143.422 8.6875 143.359 7.75C143.307 6.80208 143.208 6 143.062 5.34375H147.828V22.0625Z" fill="#FFF7F3"/>
</svg>
