<svg width="30" height="30" viewBox="0 0 30 30" fill="none" xmlns="http://www.w3.org/2000/svg">
<path fill-rule="evenodd" clip-rule="evenodd" d="M4.99983 30H14.4995C18.3307 29.967 22.0176 28.534 24.8655 25.9711C27.7133 23.4081 29.5255 19.892 29.9606 16.0855C30.1165 13.9383 29.8083 11.7827 29.0571 9.76519C28.3058 7.74769 27.129 5.91554 25.6068 4.39325C24.0845 2.87096 22.2523 1.6942 20.2348 0.942932C18.2173 0.191665 16.0617 -0.116503 13.9145 0.0393675C10.1095 0.473906 6.59465 2.28458 4.03182 5.13043C1.46899 7.97628 0.035044 11.6609 0 15.4905V23.8902C0 28.1101 2.51158 30 4.99983 30ZM22.1546 10.3372V7.25329H7.66036V10.3372C8.10444 10.2303 8.56497 10.1645 9.04194 10.1398C9.52714 10.1069 10.0164 10.0905 10.5099 10.0905H13.125V20.1686C13.125 21.3199 13.1086 22.3396 13.0757 23.2278C13.051 24.116 12.9852 24.7944 12.8783 25.2632H16.8873C16.7804 24.7944 16.7105 24.116 16.6776 23.2278C16.653 22.3396 16.6406 21.3199 16.6406 20.1686V10.0905H19.3051C19.8067 10.0905 20.2961 10.1069 20.773 10.1398C21.25 10.1645 21.7105 10.2303 22.1546 10.3372Z" fill="#023047"/>
</svg>
